<svg xmlns="http://www.w3.org/2000/svg" width="143" height="65" viewBox="0 0 143 65">
    <defs>
        <filter id="a" width="102.1%" height="166.7%" x="-1%" y="-33.3%" filterUnits="objectBoundingBox">
            <feOffset in="SourceAlpha" result="shadowOffsetOuter1"/>
            <feGaussianBlur in="shadowOffsetOuter1" result="shadowBlurOuter1" stdDeviation="5"/>
            <feColorMatrix in="shadowBlurOuter1" result="shadowMatrixOuter1" values="0 0 0 0 0 0 0 0 0 0 0 0 0 0 0 0 0 0 0.1 0"/>
            <feMerge>
                <feMergeNode in="shadowMatrixOuter1"/>
                <feMergeNode in="SourceGraphic"/>
            </feMerge>
        </filter>
        <linearGradient id="b" x1="50.042%" x2="50.042%" y1="-3.544%" y2="99.144%">
            <stop offset="33.49%" stop-color="#44B873"/>
            <stop offset="49.18%" stop-color="#3AB06E"/>
            <stop offset="76.18%" stop-color="#1E9B61"/>
            <stop offset="100%" stop-color="#008453"/>
        </linearGradient>
        <linearGradient id="c" x1="-.241%" x2="99.91%" y1="50.555%" y2="50.555%">
            <stop offset="0%" stop-color="#012921"/>
            <stop offset="3%" stop-color="#013128"/>
            <stop offset="16%" stop-color="#035343"/>
            <stop offset="28%" stop-color="#056C56"/>
            <stop offset="39%" stop-color="#067B62"/>
            <stop offset="49%" stop-color="#068066"/>
            <stop offset="59%" stop-color="#067C62"/>
            <stop offset="70%" stop-color="#056E58"/>
            <stop offset="82%" stop-color="#045847"/>
            <stop offset="94%" stop-color="#023A2E"/>
            <stop offset="100%" stop-color="#012921"/>
        </linearGradient>
        <linearGradient id="d" x1="-.24%" x2="99.908%" y1="49.448%" y2="49.448%">
            <stop offset="0%" stop-color="#012921"/>
            <stop offset="3%" stop-color="#013128"/>
            <stop offset="16%" stop-color="#035343"/>
            <stop offset="28%" stop-color="#056C56"/>
            <stop offset="39%" stop-color="#067B62"/>
            <stop offset="49%" stop-color="#068066"/>
            <stop offset="59%" stop-color="#067C62"/>
            <stop offset="70%" stop-color="#056E58"/>
            <stop offset="82%" stop-color="#045847"/>
            <stop offset="94%" stop-color="#023A2E"/>
            <stop offset="100%" stop-color="#012921"/>
        </linearGradient>
        <linearGradient id="e" x1="50.295%" x2="50.295%" y1="-24.09%" y2="141.508%">
            <stop offset="0%" stop-color="#012921"/>
            <stop offset="100%" stop-color="#044D3D" stop-opacity="0"/>
        </linearGradient>
        <linearGradient id="f" x1="49.787%" x2="49.787%" y1="124.104%" y2="-41.492%">
            <stop offset="0%" stop-color="#012921"/>
            <stop offset="100%" stop-color="#044D3D" stop-opacity="0"/>
        </linearGradient>
        <linearGradient id="g" x1="49.333%" x2="49.333%" y1="12.849%" y2="113.072%">
            <stop offset="12%" stop-color="#44B873"/>
            <stop offset="100%" stop-color="#008453"/>
        </linearGradient>
        <linearGradient id="h" x1="49.68%" x2="49.68%" y1="13.227%" y2="113.449%">
            <stop offset="12%" stop-color="#44B873"/>
            <stop offset="100%" stop-color="#008453"/>
        </linearGradient>
        <linearGradient id="i" x1="166.088%" x2="-40.459%" y1="49.731%" y2="49.731%">
            <stop offset="0%" stop-color="#FFF"/>
            <stop offset="9.887%" stop-color="#F9FDFB" stop-opacity=".883"/>
            <stop offset="22.62%" stop-color="#E9F7EF" stop-opacity=".733"/>
            <stop offset="36.92%" stop-color="#CFEDDB" stop-opacity=".565"/>
            <stop offset="52.35%" stop-color="#AADFBF" stop-opacity=".383"/>
            <stop offset="68.57%" stop-color="#7BCD9C" stop-opacity=".191"/>
            <stop offset="84.8%" stop-color="#44B873" stop-opacity="0"/>
        </linearGradient>
        <linearGradient id="j" x1="-65.789%" x2="140.758%" y1="49.731%" y2="49.731%">
            <stop offset="0%" stop-color="#FFF"/>
            <stop offset="9.887%" stop-color="#F9FDFB" stop-opacity=".883"/>
            <stop offset="22.62%" stop-color="#E9F7EF" stop-opacity=".733"/>
            <stop offset="36.92%" stop-color="#CFEDDB" stop-opacity=".565"/>
            <stop offset="52.35%" stop-color="#AADFBF" stop-opacity=".383"/>
            <stop offset="68.57%" stop-color="#7BCD9C" stop-opacity=".191"/>
            <stop offset="84.8%" stop-color="#44B873" stop-opacity="0"/>
        </linearGradient>
        <linearGradient id="k" x1="50.065%" x2="50.065%" y1="-47.198%" y2="146.222%">
            <stop offset="0%" stop-color="#FFF"/>
            <stop offset="15.17%" stop-color="#F9FCFB" stop-opacity=".821"/>
            <stop offset="34.69%" stop-color="#E9F3EF" stop-opacity=".591"/>
            <stop offset="56.6%" stop-color="#CFE4DB" stop-opacity=".333"/>
            <stop offset="80.09%" stop-color="#AAD0C0" stop-opacity=".056"/>
            <stop offset="84.8%" stop-color="#A2CBBA" stop-opacity="0"/>
        </linearGradient>
    </defs>
    <g fill="none" fill-rule="evenodd" filter="url(#a)" transform="translate(-70 2)">
        <g transform="translate(80 11)">
            <circle cx="18.894" cy="19" r="10.556" fill="url(#b)" fill-rule="nonzero"/>
            <g fill="#FFF" fill-rule="nonzero" opacity=".87">
                <path d="M27.972 14.356l-.105-.106-.106-.106v-.21c0-.106-.105-.106-.105-.212h-.106-.106-.105-.106l-.105-.105c-.211-.106-.317-.106-.528-.211 0 0-.106 0-.106-.106-.105-.106-.21-.106-.316-.211l-.106-.106c-.105 0-.21-.105-.422-.105-.106 0-.106.105-.106.105.106.106.106.211.212.211v.106h-.106l-.211-.211c-.106-.106-.106-.106-.211-.106h-.634c-.105 0-.105-.105-.105-.105v-.106l-.106-.105c0-.106-.105-.106-.21-.106h-.212c-.105 0-.105 0-.211.106h-.211a1.457 1.457 0 0 0-.422-.317l-.106-.106c-.317-.105-.528-.105-.844-.21-.106 0-.106.105-.106.105 0 .105.106.211.106.317v.21c-.106.106-.317.106-.423.212-.105 0-.21 0-.316-.106-.211-.21-.422-.422-.528-.633l-.106-.106h-.21c-.106 0-.106.106-.106.106v.211c-.317 0-.528-.106-.845-.106-.105 0-.21 0-.21.106-.106.106-.212.106-.317.211 0 0-.106 0-.106-.105.106-.212.106-.423.211-.634 0-.105 0-.21-.105-.21l-.317-.318s-.106-.105-.211 0h-.211c-.106 0-.106-.105-.211-.105h-.106c-.211 0-.317.211-.211.317v.105c0 .106 0 .211-.106.211l-.95.634c-.105.105-.105.21 0 .21 0 0 .106 0 .106.106v.106c-.106 0-.211.105-.317.21 0 0-.105 0-.105.106-.106.106-.211.106-.317.212-.106.105-.106.21-.106.316.106.211.106.528.212.74h.316c.106.105.211.21.211.316v.105h-.105c-.106-.105-.106-.21-.211-.21h-.106v.105c0 .105 0 .105.106.21 0 .106 0 .212-.106.212l-.105.106h-.106V15.2l.106-.106s.105-.105 0-.105a17.32 17.32 0 0 0-.317-1.161c0-.106-.106-.106-.211-.106h-.106c-.105 0-.105 0-.105.106v.844a.227.227 0 0 1-.211.211h-.212c-.105 0-.316 0-.422-.105h-.105v.105h.105v.106c-.316.211-.633.422-.95.739-.105 0-.105.105-.21.105-.106 0-.212.106-.318.106-.105 0-.105.105-.21.105l-.423.423c-.105.105-.105.105-.211 0h-.106l-.105-.106v-.105h.422c.106 0 .106 0 .211-.106.106-.106.106-.211 0-.317l-.633-.316h-.211l-.106.105c-.105.106-.105.211-.105.317l.316.95v.211c0 .106-.105.211-.105.211v.211l-.106.106v.422c0 .106.106.211.211.211h.106c.105 0 .105 0 .105.106l.212.21v.106s-.106.106 0 .106c0 0 .105.105.105 0h.211c0 .105.106.105.106.211l.105.106h.317c.106 0 .106.105.106.105 0 .106-.106.317-.106.422v.106h-.211-.106-.105-.106v.105s.106 0 .106.106h.528c.105.106.21.211.422.317.105.105.21.105.21.105h.423c.106 0 .211-.105.106-.21 0-.106-.106-.106-.106-.212v-.106c0-.105.106-.105.106-.21 0-.106 0-.212-.106-.212-.105 0-.105-.105-.211-.105v-.106c.106-.105.211-.317.317-.422 0 0 .105-.106.105 0 .106 0 .211 0 .317.105h.422a.227.227 0 0 0 .211-.21v-.317s0-.106.106-.106l.633-.317h.211l.106.106s.105 0 .105.106c.106 0 .211 0 .317.105h.422c.422.211.845.422 1.267.739H19c.106 0 .106-.106.211-.106h.317s.105 0 .105.106h.211c.106 0 .106-.106.106-.106v-.105c0-.106.106-.211.106-.106.105 0 .105 0 .21.106 0 0 .106 0 .106.105 0 .106.106.106.211.106h.528s.106 0 .106.106c.105.105.21.105.316 0 .106 0 .317-.106.423-.106h.527c.106 0 .106-.106.106-.106v-.316-.106-.105s0-.106.105-.106h.423c.105 0 .105 0 .21.106.106.105.212.316.317.422 0 .105.106.105.212.105.105 0 .21.106.316.106l.106.106c0 .105 0 .105.105.105h.211v-.105h.106c.106 0 .106.105.106.105v.422c0 .106-.106.106-.106.106h-.106-.105l-.106.105c0 .106 0 .106.106.212 0 .105.105.105.105.105h.106s.106 0 .106-.105l.316-.634v-.105c0-.317-.105-.634-.21-.95 0-.106 0-.106-.106-.106s-.106-.105-.212-.105h-.21-.106c-.106 0-.106-.106-.211-.106-.106 0-.106-.106-.106-.211.106-.317.211-.528.211-.739 0-.106.106-.106.211-.106h.423s.105 0 .105-.105c0 0 .106-.106.106 0 .105 0 .21 0 .21.105.106 0 .212 0 .212-.105v-.317c0-.105 0-.105.105-.105h.106s.106 0 .106.105c0 0 0 .106.105.106h.106v-.317s0-.105.105-.105c.106 0 .106.105.106.105v.95s0 .106-.106.106c-.105 0-.105.105 0 .21.211.423.317.845.528 1.162 0 0 0 .105.106.105.105 0 .105 0 .105-.105v-1.056c0-.105 0-.105-.105-.21 0 0 0-.106-.106-.106-.106-.106-.106-.106-.106-.211v-.212c0-.105 0-.105.106-.105 0 0 .106 0 .106-.106h.316c.106 0 .211 0 .211-.105.106-.106.106-.211.211-.422h.106c.106 0 .106 0 .106-.106v-.106c-.106-.105-.212-.21-.317-.422h-.106l-.105-.105V15.2s0-.106-.106-.106v-.105h.106v.105h.316l.106.106.106.106h.211c.21-.845.105-.845.105-.95z"/>
                <path d="M27.972 14.356l-.105-.106-.106-.106v-.21c0-.106-.105-.106-.105-.212h-.106-.106-.105-.106l-.105-.105c-.211-.106-.317-.106-.528-.211 0 0-.106 0-.106-.106-.105-.106-.21-.106-.316-.211l-.106-.106c-.105 0-.21-.105-.422-.105-.106 0-.106.105-.106.105.106.106.106.211.212.211v.106h-.106l-.211-.211c-.106-.106-.106-.106-.211-.106h-.634c-.105 0-.105-.105-.105-.105v-.106l-.106-.105c0-.106-.105-.106-.21-.106h-.212c-.105 0-.105 0-.211.106h-.211a1.457 1.457 0 0 0-.422-.317l-.106-.106c-.317-.105-.528-.105-.844-.21-.106 0-.106.105-.106.105 0 .105.106.211.106.317v.21c-.106.106-.317.106-.423.212-.105 0-.21 0-.316-.106-.211-.21-.422-.422-.528-.633l-.106-.106h-.21c-.106 0-.106.106-.106.106v.211c-.317 0-.528-.106-.845-.106-.105 0-.21 0-.21.106-.106.106-.212.106-.317.211 0 0-.106 0-.106-.105.106-.212.106-.423.211-.634 0-.105 0-.21-.105-.21l-.317-.318s-.106-.105-.211 0h-.211c-.106 0-.106-.105-.211-.105h-.106c-.211 0-.317.211-.211.317v.105c0 .106 0 .211-.106.211l-.95.634c-.105.105-.105.21 0 .21 0 0 .106 0 .106.106v.106c-.106 0-.211.105-.317.21 0 0-.105 0-.105.106-.106.106-.211.106-.317.212-.106.105-.106.21-.106.316.106.211.106.528.212.74h.316c.106.105.211.21.211.316v.105h-.105c-.106-.105-.106-.21-.211-.21h-.106v.105c0 .105 0 .105.106.21 0 .106 0 .212-.106.212l-.105.106h-.106V15.2l.106-.106s.105-.105 0-.105a17.32 17.32 0 0 0-.317-1.161c0-.106-.106-.106-.211-.106h-.106c-.105 0-.105 0-.105.106v.844a.227.227 0 0 1-.211.211h-.212c-.105 0-.316 0-.422-.105h-.105v.105h.105v.106c-.316.211-.633.422-.95.739-.105 0-.105.105-.21.105-.106 0-.212.106-.318.106-.105 0-.105.105-.21.105l-.423.423c-.105.105-.105.105-.211 0h-.106l-.105-.106v-.105h.422c.106 0 .106 0 .211-.106.106-.106.106-.211 0-.317l-.633-.316h-.211l-.106.105c-.105.106-.105.211-.105.317l.316.95v.211c0 .106-.105.211-.105.211v.211l-.106.106v.422c0 .106.106.211.211.211h.106c.105 0 .105 0 .105.106l.212.21v.106s-.106.106 0 .106c0 0 .105.105.105 0h.211c0 .105.106.105.106.211l.105.106h.317c.106 0 .106.105.106.105 0 .106-.106.317-.106.422v.106h-.211-.106-.105-.106v.105s.106 0 .106.106h.528c.105.106.21.211.422.317.105.105.21.105.21.105h.423c.106 0 .211-.105.106-.21 0-.106-.106-.106-.106-.212v-.106c0-.105.106-.105.106-.21 0-.106 0-.212-.106-.212-.105 0-.105-.105-.211-.105v-.106c.106-.105.211-.317.317-.422 0 0 .105-.106.105 0 .106 0 .211 0 .317.105h.422a.227.227 0 0 0 .211-.21v-.317s0-.106.106-.106l.633-.317h.211l.106.106s.105 0 .105.106c.106 0 .211 0 .317.105h.422c.422.211.845.422 1.267.739H19c.106 0 .106-.106.211-.106h.317s.105 0 .105.106h.211c.106 0 .106-.106.106-.106v-.105c0-.106.106-.211.106-.106.105 0 .105 0 .21.106 0 0 .106 0 .106.105 0 .106.106.106.211.106h.528s.106 0 .106.106c.105.105.21.105.316 0 .106 0 .317-.106.423-.106h.527c.106 0 .106-.106.106-.106v-.316-.106-.105s0-.106.105-.106h.423c.105 0 .105 0 .21.106.106.105.212.316.317.422 0 .105.106.105.212.105.105 0 .21.106.316.106l.106.106c0 .105 0 .105.105.105h.211v-.105h.106c.106 0 .106.105.106.105v.422c0 .106-.106.106-.106.106h-.106-.105l-.106.105c0 .106 0 .106.106.212 0 .105.105.105.105.105h.106s.106 0 .106-.105l.316-.634v-.105c0-.317-.105-.634-.21-.95 0-.106 0-.106-.106-.106s-.106-.105-.212-.105h-.21-.106c-.106 0-.106-.106-.211-.106-.106 0-.106-.106-.106-.211.106-.317.211-.528.211-.739 0-.106.106-.106.211-.106h.423s.105 0 .105-.105c0 0 .106-.106.106 0 .105 0 .21 0 .21.105.106 0 .212 0 .212-.105v-.317c0-.105 0-.105.105-.105h.106s.106 0 .106.105c0 0 0 .106.105.106h.106v-.317s0-.105.105-.105c.106 0 .106.105.106.105v.95s0 .106-.106.106c-.105 0-.105.105 0 .21.211.423.317.845.528 1.162 0 0 0 .105.106.105.105 0 .105 0 .105-.105v-1.056c0-.105 0-.105-.105-.21 0 0 0-.106-.106-.106-.106-.106-.106-.106-.106-.211v-.212c0-.105 0-.105.106-.105 0 0 .106 0 .106-.106h.316c.106 0 .211 0 .211-.105.106-.106.106-.211.211-.422h.106c.106 0 .106 0 .106-.106v-.106c-.106-.105-.212-.21-.317-.422h-.106l-.105-.105V15.2s0-.106-.106-.106v-.105h.106v.105h.316l.106.106.106.106h.211c.21-.845.105-.845.105-.95z"/>
                <g opacity=".6">
                    <path d="M25.756 19.739h.105v-.106h.211s.106 0 .106-.105c.105 0 .105 0 .105-.106 0 0 0-.105-.105-.105-.106-.106-.211-.106-.317-.211h-.105-.106v.211h-.106v.105c.106.211.106.211.212.317-.106 0-.106 0 0 0zM24.806 21.111s0 .106 0 0c0 .106.105.106.105.211 0 0 0 .106.106.106h.105v-.106s0-.105.106-.105c0 0 .105 0 .105-.106h.317s.106 0 .106-.105h.421l.106-.106v-.317-.105c0-.106-.105-.211-.105-.317l-.106-.105-.105.105v.317c0 .105 0 .105-.106.105h-.105c-.106 0-.106 0-.212.106 0 0-.105 0-.105.105 0 0 0 .106-.106.106h-.21-.106l-.106.106-.105.105v.106c0-.211-.106-.106 0-.106zM21.006 23.328s.105 0 0 0h.105v.739s0 .105.106.105v.422l.21.212h.106V24.7v-.106-.21-.106l-.105-.106h-.106s-.105 0-.105-.105c0 0 0-.106-.106-.106h-.105l.105-.211v-.106-.105l.211.211h.211s0 .106-.105.106v.105h.105l.317-.317.106-.105v-.211-.106l-.317-.633v-.106-.105-.106c.105 0 .105 0 .211-.105h.317c.21-.106.316-.106.527-.211.106 0 .106-.106.212-.106.105-.211.316-.422.422-.528 0 0 .105-.105.105-.21v-.318c0-.105 0-.105-.105-.21l-.211-.212s-.106-.105-.106-.21c0-.106 0-.106.106-.212v-.106-.105c0-.106-.106-.106-.211 0H22.8l-.106-.106v-.105-.106c.106-.105.212-.21.317-.21h.106v.21h.105l.106-.105s.105 0 .105-.106c0 0 0 .106.106.106v.211h.105l.106.105v.423h.211l.106-.106v-.316-.106l-.211-.211-.106-.106v-.105V19s.106 0 .106-.106l.105-.105v-.106-.21-.212-.105h.106c.105 0 .105 0 .105-.106v-.422-.106h-.105-.106v.106h-.105-.106c-.106 0-.106 0-.106-.106 0 0 0-.105-.105-.105-.106 0-.211-.106-.317-.106-.105 0-.105-.105-.21-.105-.106-.106-.212-.317-.318-.423 0-.105-.105-.105-.21-.105h-.423s-.105 0-.105.105v.528c0 .106 0 .106-.106.106h-.422-.106c-.21 0-.316.105-.422.105h-.317l-.105-.105h-.528c-.106 0-.106 0-.106-.106l-.105-.105c-.106 0-.106 0-.211-.106h-.106v.317h-.211-.105L19 17.31h-.422l-.106.106h-.105-.106c-.422-.211-.844-.528-1.267-.74h-.316-.106c-.105 0-.21 0-.316-.105h-.106l-.106-.105s-.105-.106-.21 0l-.634.316-.106.106v.317a.227.227 0 0 1-.21.21h-.317-.106c-.105 0-.211-.105-.317-.105h-.105c-.106.106-.211.317-.317.422v.211l.211.106c.106 0 .106.106.106.211v.106s0 .105-.106.105c0 0 0 .106-.105.106v.21l.105.212v.106c0 .105 0 .105-.105.105h-.422-.106-.106l-.105.106h-.316-.106s-.106-.106-.211-.106h-.212c-.105 0-.105 0-.21.106h-.106-.106v.105h-.21-.106v.106c0 .105 0 .21.105.21 0 0 .106 0 .106.106h.739v.634h-.845-.105c-.106 0-.212-.106-.317-.106h-.106c-.105 0-.105 0-.21.106v.105h-.106c-.106 0-.106-.105-.211-.105h-.106-.106-.105-.106c-.105 0-.105-.106-.21-.106v-.105a.227.227 0 0 0-.212-.211h-.105c-.423.105-.74.21-1.162.316h-.316-.106-.105-.106v.106c0 .105 0 .105-.105.105 0 0-.106 0-.106.106-.106.105-.211.211-.106.317v.105l-.21.211c-.106.211-.212.317-.423.528-.105.106-.105.211 0 .317.106.21.106.422.211.633 0 .106.211.317.317.422.105.106.211.106.317.211l.105.106c0 .105.106.105.106.105.21.106.316.106.527.212h.634c.105 0 .21 0 .316-.106 0 0 .106 0 .106-.106l.106-.105h.316s.106 0 .106.105c0 .106.105.106.105.106h.211s.106 0 .212.106l.105.105v.317s0 .105.106.105c.105.106.21.211.422.317 0 0 0 .106.105.106l.106.105c.106.211.211.317.317.528v.422c0 .106 0 .106.105.211v.106c0 .105.106.105.106.21l.21.318c.318.527.634.95.95 1.477l.106.106c.106.105.106.105.212.105h.422c.105 0 .21-.105.316-.21.106-.212.212-.317.317-.528 0-.106 0-.106-.105-.212 0 0 0-.105.105-.105h.106v-.106c0-.105-.106-.21-.106-.422v-.105-.106l.211-.211s.106-.106.106-.211v-.211c0-.106 0-.211-.106-.317v-.106s0-.105-.105-.105l-.106-.106c0-.105 0-.21-.105-.316v-.106-.105c.21-.317.527-.74.844-1.056.106-.106.106-.211.106-.317v-.316-.106H15.2c-.106 0-.211 0-.317.106h-.21-.106s-.106 0-.106-.106l-.105-.105-.317-.317c-.106-.106-.106-.106-.106-.211v-.211h-.105l-.317-.317c-.105-.211-.317-.317-.422-.528-.106-.105-.106-.21 0-.316l.105-.106v.211c.423.422.74.845 1.056 1.267.106.105.106.105.106.21v.212s0 .106.105.106c0 0 .106.105.211 0 .422-.212.845-.423 1.267-.528l.105-.106c.106-.105.106-.316.212-.422v-.211c-.106-.106-.212-.106-.317-.211l.211.739h-.106l-.105.105h-.316-.106c-.106-.105-.211-.316-.317-.422l-.106-.106-.105-.105.105-.106h.212c.105.106.316.211.422.423h.211l.105-.106c0 .106.106.211.212.211h.844c.106 0 .106 0 .211.106 0 .105.106.105.211.105.106.106.106.211.211.317 0 .105.106.105.211.105 0 0 .106 0 .106.106.211.422.317.844.528 1.267 0 .105.105.105.21.105h.106c.106 0 .106-.105.106-.21v-.423c0-.106 0-.106.106-.211l.738-.74.106-.105h.317v.106l.21.211v.422h.106c.317.211.317.211.423.106zm.95-.317s.105 0 0 0c.105 0 0 0 0 0zm-.317-.422c-.106 0-.106 0 0 0-.106.105-.106 0 0 0-.106 0-.106 0 0 0zm-8.022-1.267c-.106 0-.106 0 0 0-.106-.105-.106-.105 0 0-.106 0-.106 0 0 0zm0-.528s0 .106 0 0c0 .106 0 0 0 0zm.739-.527c.105 0 .105 0 0 0 .105 0 0 0 0 0zm.633.21v-.21.21zm.528.212c.105 0 .105-.106 0 0 .105-.106.105 0 0 0zm.105-.739s.106 0 0 0c.106 0 0 0 0 0zm.211 0s0-.106 0 0c0-.106 0 0 0 0zm.634.739l-.211-.211.21.21c0 .106 0 0 0 0zm.21.844c-.105 0 0 .106 0 0 0 .106-.105 0 0 0zm.212.317c-.106 0-.106 0 0 0-.106 0-.106 0 0 0zm.528-2.111s0 .105 0 0c0 .105 0 .105 0 0zm.316.844c.106 0 0 0 0 0zm.528.634s-.105 0 0 0c-.105 0 0 0 0 0zm.422-2.006c.106 0 .106-.105.106-.105l-.106.105zm1.267 2.85c.106 0 .106 0 0 0 .106 0 .106 0 0 0zm.422.106c0 .105 0 .105 0 0zm0 .105c0 .106 0 .106 0 0 0 .106 0 .106 0 0z"/>
                    <path d="M19.211 24.278s-.105 0 0 0c-.105 0-.105 0 0 0-.105.105-.105.105-.105.21v.212h.211v-.106-.105-.106l-.106-.105zM9.711 17.839c.106 0 .211 0 .211-.106l.106-.105s.105 0 .105-.106h.106v.317h.105v.105s0 .106.106.106h.106s.105 0 .105-.106l.106-.105v-.106-.105-.106-.105l.105-.106s0-.105.106-.105V17.1l-.106-.106v-.105-.211-.106l.317-.316v-.106-.106-.105s0-.106.105-.106h.212l-.317.317-.106.106v.422h.317s.106 0 .106-.106h.422v-.105c0-.106.105-.211.105-.211 0-.106.106-.106 0-.212l-.316-.95v-.21l.105-.106.106-.106-.211-.21s-.106-.106-.211 0H11.4c-.106 0-.211 0-.211.105l-.633.422-.317.317c-.211.316-.317.633-.528.95 0 .105-.105.105-.105.21-.106 0-.106.106-.212.106-.105.106-.21.211-.21.317v.317c0 .105 0 .105.105.21.317.423.317.423.422.423zm1.689-2.322c-.106 0-.106 0 0 0-.106-.106-.106-.106 0 0-.106 0-.106 0 0 0zm-.317-.106c.106 0 .106 0 0 0 .106 0 .106 0 0 0zm0 0s0 .106 0 0c0 .106 0 .106 0 0 0 .106 0 0 0 0zm-.422.528s0-.106 0 0c0-.106 0 0 0 0zm-.317 1.161v0s-.105 0 0 0c-.105 0 0 0 0 0zM25.122 28.922c0-.105 0-.105 0 0 .106-.105.106-.105.211-.105.106-.106.211-.317.317-.423.106-.105.106-.105.106-.21l.105-.212c.106-.105.106-.21 0-.316-.105-.106-.105-.212-.211-.423v-.105c0-.106.106-.211.106-.317v-.105h-.106v-.317h-.106l-.316.633s0 .106-.106.106h-.105l-.211-.211v-.106-.105-.106h-.423c-.105 0-.105 0-.105.106l-.106.105v.106h-.21c-.106.105-.212.21-.423.316 0 0-.106.106-.106.211 0 0 0 .106-.105.106l-.106.106c-.105.105-.21.105-.316.105H22.8c-.106 0-.211.106-.317.211l-.105.106c-.106.105-.106.21-.106.316-.105.317-.105.74-.21 1.056v.106c-.106.105-.106.105 0 .21l.105.106c.105 0 .105 0 .21-.105 0-.106.106-.106.212-.106h.211s.106 0 .106-.105v-.106l.105-.106h.633s.106.106.106 0v.212h.106l.105-.106.106-.106s-.106.106-.106.212v.527l.106.106h.211s.105 0 .105-.106l.106-.105h.105s.106 0 .106-.106c0 0 0-.105.106-.105 0 0 0-.106.105-.106-.105-.422.106-.633.211-.739zM22.694 22.906V22.8h-.105l-.106.106s-.105.105 0 .105v.106h.106c0-.106 0-.106.105-.211zM23.75 22.589s.106 0 0 0h.106v-.106l.105-.21v-.106h-.105s0 .105-.106.105v.316zM7.494 16.783c0-.105-.105-.105-.105-.105h-.106c-.105.105-.21.21-.316.21H6.86h-.105-.212c-.105 0-.105.106-.105.212v.106l.105.105s.106.106.212.106c.105 0 .21 0 .316-.106.106-.105.211-.105.317-.211.105-.106.211-.211.105-.317.106.106.106 0 0 0zM11.4 17.522c0 .106 0 .106 0 0 .106 0 .106 0 0 0 .106 0 .106 0 0 0 .106-.105.106-.105 0 0 0-.105 0-.105 0 0 0-.105 0 0 0 0zM10.978 17.733c0 .106-.106.106-.106.106.106 0 .211-.106.106-.106.105 0 .105-.105 0 0z"/>
                    <path d="M9.183 19c0 .106 0 .106 0 0 0 .106 0 .106 0 0 0 .106 0 .106-.105.106h-.211s-.106 0-.106.105h-.317s-.105 0-.105.106c0 0 0 .105.105.105h.212s.105 0 .105.106c0 0 0 .105.106.105v.211c-.211.212-.423.212-.634.212-.105 0-.105 0-.105.105v.106s0 .105.105.105h.211c0 .211 0 .317.106.528 0 0 0 .106.106.106 0 0 .105 0 .105.105h.422s0-.105.106-.105l.105-.106.106-.106.106-.105h.105v-.106-.21h.422l.106-.106h.317l.21.21s.106 0 .106.106c.106.106.211.106.422.211v.317h.106l.106-.105V20.9h.211c-.106-.106-.317-.106-.423-.211l-.316-.317h.105c.106.106.211.106.211.211 0 0 .106.106.212.106h.105l.106.105v.212l.105.105v.106l.106.105.105.106h.106l-.211-.211h.633l-.105-.106v-.105-.106c.105 0 .105-.106.105-.211v-.106-.105h1.056c0-.106 0-.211.105-.211v-.106l-.105-.105H13.3c-.106 0-.106 0-.106-.106l-.105-.106-.106-.105s-.105-.106-.21 0h-.106-.106v-.106-.105-.106l-.105-1.478-.106-.105h-.106s-.105 0-.105-.106v-.105-.422h-.317c-.105 0-.105 0-.105.105v.106s0 .105.105.105h0-.105-.106v.528s0 .106.106.106h-.634l-.21.105-.106.106h-.106-.105v-.106-.105-.317l-.106.105v.317s0 .106.106.106v.105s-.106 0-.106.106h-.106-.105l-.211.21v.106c-.74.106-.74.106-.845.106.106 0 .106 0 0 0zm3.167.422s0 .106 0 0c0 .106 0 .106 0 0 0 .106 0 0 0 0zm-.106 0c0-.105 0-.105 0 0 0-.105 0-.105 0 0zm0 .317c-.105 0-.105 0 0 0-.105 0-.105 0 0 0zm0 .317c0 .105-.105.105 0 0-.105.105-.105.105 0 0-.105.105 0 .105 0 0zm-.316.105c-.106 0-.106 0 0 0-.106 0 0 0 0 0zm-.211-1.9v0zm0 .317c-.106 0-.106.105 0 0-.106.105-.106 0 0 0zm-.106 1.478h-.105.105zm-.633-.74s0-.105 0 0c0-.105 0 0 0 0zm0 .212s0-.106 0 0c-.106-.106-.106-.106 0 0-.106-.106 0-.106 0 0zm-.95-1.267s.105 0 0 0c.105 0 0 0 0 0zm-.106 1.161s0-.105 0 0c0-.105 0 0 0 0zm0-.21s0 .105 0 0c0 .105 0 0 0 0zm0 .421c-.105.106 0 0 0 0zM9.606 19s0 .106.105.106L9.606 19s0-.106 0 0v-.106V19z"/>
                    <path d="M10.239 18.05s-.106.106 0 0c-.106.106 0 .106 0 0v.106c.105 0 .105 0 0-.106.105.106.105.106 0 0 .105.106.105.106 0 0 .105.106.105 0 0 0zM8.339 18.472h.211v.106s-.106 0-.106.105c0 0-.105 0-.105.106 0 0 0 .105.105.105V19l-.105.106h.211s.106 0 .106-.106h.316s.106 0 .106-.106l.105-.105v-.106c0-.105-.105-.105-.105-.105h-.106v-.211h-.105s0-.106-.106-.106v-.105h-.105.105v-.106-.106h-.105v-.105H8.55c-.106.105-.106.105-.211.105l-.106.106v.211c0 .106.106.211.106.211zM7.811 19h.317c.105 0 .105-.106.105-.106v-.105-.106-.105h-.105-.106-.105c-.106 0-.106.105-.106.105s0 .106.106.106c0 0 0 .105-.106.211 0-.106 0-.106 0 0zM10.872 20.689h-.21v.105c.105 0 .105.106.21.106h.106c0-.211 0-.211-.106-.211zM10.028 20.372v.106l.105.105h.106v-.211s0-.105-.211 0c.105-.105.105-.105 0 0 .105-.105 0-.105 0 0zM10.239 20.161v-.105l-.106.105v.106c0-.106 0-.106.106-.106-.106.106 0 .106 0 0zM12.033 21.006s-.105 0 0 0c0 0 0 .105 0 0 .106.105.211.105.317.105 0 0 0-.105-.106-.105h-.21zM13.089 21.111c.105 0 .211 0 .211-.105V20.9h-.211c0 .106-.106.106 0 .211-.106 0 0 0 0 0zM15.939 27.022s0-.105-.106-.105c0 .105-.105.21-.105.316 0 0 0 .106-.106.106h-.21s-.106 0-.106.105v.845c0 .105 0 .105.105.105h.106l.105.106.106-.106c0-.316.105-.633.105-1.055v-.211l.106-.106zM21.956 25.756c0-.106 0-.106-.106-.212-.211-.21-.422-.527-.739-.844l-.105-.106H20.9h-.106v.106c.106.106.212.211.317.422 0 0 .106.106.106.211v.211c.105.106.21.317.316.423h.106c.105 0 .105-.106.105-.106l.212-.105zM23.328 25.228c.105 0 .105-.106 0 0l.105-.106-.105-.105v-.106-.105h.105V24.7l-.105-.106h-.106c-.21.106-.316.317-.528.528 0 0-.105 0-.105.106h-.106c0 .105-.105.105 0 .21 0 .106 0 .106.106.212 0 .106.105.106.105.106h.423c0-.212.105-.423.21-.528zM23.75 23.328v.21l.106.106h.211v-.105-.106l.105-.105v-.106-.105h-.105a.227.227 0 0 0-.211.21c-.106-.105-.106-.105-.106 0zM24.067 23.856s-.106 0 0 0h-.106v.105s.106 0 .106-.105z"/>
                    <path d="M24.172 23.75c.106 0 .106 0 0 0 0-.106 0-.106-.105-.106h-.106v.106h.211z"/>
                    <path d="M23.75 23.644c0 .106 0 .106.106.106h.105v-.106c-.105.106-.105 0-.211 0 .106 0 0 0 0 0zM24.383 23.75s-.105 0 0 0c-.105 0-.105 0 0 0h-.105l.105.106v-.106c0 .106 0 .106 0 0 0 .106 0 .106 0 0 0 .106 0 0 0 0zM24.172 24.594c.106 0 .106 0 0 0 .106 0 .106 0 .106-.105 0 0 .105 0 .105-.106v-.105-.106h-.105l-.211.211v.106l.105.105c0-.105 0-.105 0 0zM24.067 24.067c-.106 0-.106 0 0 0-.106 0-.106 0 0 0v0c0-.106 0-.106 0 0 0-.106 0 0 0 0zM23.644 23.961v-.105.105c0-.105 0 0 0 0s-.105 0 0 0h-.105c-.106.106-.211.106-.211.211v.106l.21-.211.106-.106c0 .106 0 .106 0 0zM26.283 25.65s-.105-.106 0 0c0-.106 0-.106 0 0v-.106c-.105 0-.316-.105-.422-.105-.105 0-.211-.106-.211-.106s-.106 0-.106.106l-.21.211v-.211-.106h-.106-.106s-.105 0-.105.106v.211h.422c.105 0 .105 0 .105.106v.105h.317s.106 0 .106-.105h.105c0 .105.106.105.106.21h.105c.106 0 .106-.105.106-.105v-.105l-.106-.106v-.106c.106.106 0 .106 0 .106zM22.694 26.283c.106 0 .106 0 .106-.105v-.106c-.106 0-.211-.105-.317-.105h-.421-.106v.105c.21.106.527.211.738.211zM23.856 25.333s0-.105 0 0c0-.105 0-.105 0 0h-.106l-.106.106h-.105s-.106 0-.106.105c0 .106-.105.106-.105.212v.211s.105 0 .105-.106v-.211.106h.106v-.106-.106-.105a.462.462 0 0 0 .317-.106zM23.75 26.494c.106-.105.211-.105.317-.21h-.106-.105-.106s-.106.105 0 .21c-.106-.105-.106-.105 0 0-.106-.105-.106-.105 0 0-.106-.105-.106-.105 0 0-.106-.105-.106 0 0 0zM26.917 25.439c-.106 0-.106 0 0 0-.106.105-.106.105-.211.105h-.212s-.105 0-.105.106h.211c.211-.106.317-.106.317-.211.105.105.105 0 .105 0h-.105c0-.106 0 0 0 0zM11.083 12.667c0 .105.106.105 0 0 .106.105.106.105 0 0h.211s.106 0 .106-.106l.211-.211v-.106-.105h-.105c-.106 0-.317.105-.423.105 0 0-.105 0-.105.106v.106l.105.21zM10.45 13.194c0 .106 0 .106 0 0 0 .106 0 .106 0 0 .106.106.106.106 0 0l.106.212v.105l.21.211.106-.105c0-.211.106-.317.106-.528 0 0 0-.106.105-.106 0 0 .106 0 .106-.105l-.317-.317s-.105 0-.105.106h-.211a.227.227 0 0 0-.212.21v.106c-.105.106 0 .106.106.211-.106 0-.106 0 0 0zM11.294 12.983s-.105 0 0 0c-.105 0-.105.106 0 0l-.105.106h.105s.106 0 0-.106c0 .106 0 0 0 0zM23.856 30.294c0-.105 0-.105 0 0 0-.105 0-.105 0 0-.106-.105-.106-.105-.106 0-.106.106-.106.317-.211.423v.105c.211-.21.317-.316.317-.528.105.106.105.106.105 0v-.105l-.105.105zM26.6 28.606s-.106 0 0 0c-.106.105-.106.21-.106.21s0 .106-.105.106v.106l-.106.105-.105.106-.106.105s0 .106-.105.106c0 0 0 .106-.106.106h-.105c-.317.316-.634.633-.95.844l-.106.106s.106 0 .106-.106c.527-.528 1.055-1.056 1.688-1.583.106-.106.106-.106.106-.211 0 .21 0 .105 0 0 .106 0 .106 0 0 0zM27.339 26.917c-.106 0-.106 0-.106.105l.106.106s.105 0 .105-.106c-.105 0-.105 0-.105-.105zM28.817 26.283c-.106 0-.106.106-.106.106s.106 0 .106-.106c0 .106 0 .106 0 0 0 .106 0 0 0 0 .105 0 .105 0 0 0zM27.233 25.544s-.105 0 0 0h-.105c0 .106.105.106.105 0 0 .106 0 .106 0 0zM27.867 26.283c0 .106 0 .106 0 0 0 .106 0 .106 0 0 0 .106 0 0 0 0 .105 0 .105 0 0 0 .105 0 .105 0 0 0zM27.444 25.756s0 .105 0 0c0 .105.106.105 0 0 .106.105.106.105 0 0 .106.105.106.105 0 0 .106.105.106 0 0 0 .106 0 .106 0 0 0zM27.55 25.65s-.106 0 0 0c-.106 0-.106 0 0 0-.106.106-.106.106 0 0-.106.106 0 .106 0 0 0 .106 0 0 0 0zM24.383 25.65h.211s.106 0 .106-.106h-.211c-.106 0-.211 0-.106.106-.105-.106-.105-.106 0 0zM23.222 26.178h-.21s-.106 0-.106.105h.21c.106 0 .212 0 .106-.105.106 0 .106 0 0 0z"/>
                    <path d="M23.328 26.283h.21s.106 0 .106-.105h-.21c-.106 0-.106 0-.106.105zM24.067 25.017h-.423s-.105 0-.105.105c.211 0 .422 0 .528-.105 0 .105 0 .105 0 0 0 .105 0 .105 0 0z"/>
                </g>
                <path d="M15.2 12.456c0-.106 0-.106-.106-.106 0 0-.105 0-.105.106l-.106.105h-.105s-.106 0-.106.106l-.21.21c-.106.106-.106.106-.106.212-.106.317-.106.633-.212.844 0 .106 0 .106.106.211.106.106.211.106.317.212h.211v-.106l-.211-.211s-.106-.106-.106-.211c0-.211.106-.422.106-.634 0 0 0-.105.105-.105l.634-.633c-.106.105-.106.105-.106 0zM25.228 17.628c.105.422.316.844.422 1.16l.106.106s.105 0 0-.105c0-.106-.106-.211-.106-.317-.106-.21-.211-.528-.422-.739.21-.21.105-.21 0-.105 0-.106 0-.106 0 0zM21.006 11.083v.106c0 .105.105.211.105.211.106 0 .106.106.211.106h.211l.211-.212v-.105c0-.106-.105-.106-.105-.211-.211 0-.317-.106-.528-.106 0 0-.105.106-.105.211zM17.628 11.189l.21-.211c.106-.106.106-.106 0-.211-.105-.106-.21-.106-.316-.211h-.105c.105.21.105.422.21.633-.105 0 0 0 0 0zM17.311 10.872v-.316s0-.106-.105-.106c0 0-.106 0-.106-.106-.106 0-.106 0-.211.106 0 0 0 .106-.106.106-.105.105 0 .21.106.21.105.106.211.106.422.106 0 .106 0 0 0 0z"/>
                <path d="M27.972 14.356l-.105-.106-.106-.106v-.21c0-.106-.105-.106-.105-.212h-.106-.106-.105-.106l-.105-.105c-.211-.106-.317-.106-.528-.211 0 0-.106 0-.106-.106-.105-.106-.21-.106-.316-.211l-.106-.106c-.105 0-.21-.105-.422-.105-.106 0-.106.105-.106.105.106.106.106.211.212.211v.106h-.106l-.211-.211c-.106-.106-.106-.106-.211-.106h-.634c-.105 0-.105-.105-.105-.105v-.106l-.106-.105c0-.106-.105-.106-.21-.106h-.212c-.105 0-.105 0-.211.106h-.211c-.106-.106-.211-.211-.422-.317l-.106-.106c-.317-.105-.528-.105-.844-.21-.106 0-.106.105-.106.105 0 .105.106.211.106.317v.21c-.106.106-.317.106-.423.212-.105 0-.21 0-.316-.106-.211-.21-.422-.422-.528-.633l-.106-.106h-.21c-.106 0-.106.106-.106.106v.211c-.317 0-.528-.106-.845-.106-.105 0-.21 0-.21.106-.106.106-.212.106-.317.211 0 0-.106 0-.106-.105.106-.212.106-.423.211-.634 0-.105 0-.21-.105-.21l-.317-.318s-.106-.105-.211 0h-.211c-.106 0-.106-.105-.211-.105h-.106c-.211 0-.317.211-.211.317v.105c0 .106 0 .211-.106.211l-.95.634c-.105.105-.105.21 0 .21 0 0 .106 0 .106.106v.106c-.106 0-.211.105-.317.21 0 0-.105 0-.105.106-.106.106-.211.106-.317.212-.106.105-.106.21-.106.316.106.211.106.528.212.74h.316c.106.105.211.21.211.316v.105h-.105c-.106-.105-.106-.21-.211-.21h-.106v.105c0 .105 0 .105.106.21 0 .106 0 .212-.106.212l-.105.106h-.106V15.2l.106-.106s.105-.105 0-.105a17.32 17.32 0 0 0-.317-1.161c0-.106-.106-.106-.211-.106h-.106c-.105 0-.105 0-.105.106v.844a.227.227 0 0 1-.211.211h-.212c-.105 0-.316 0-.422-.105h-.105v.105h.105v.106c-.316.211-.633.422-.95.739-.105 0-.105.105-.21.105-.106 0-.212.106-.318.106-.105 0-.105.105-.21.105l-.423.423c-.105.105-.105.105-.211 0h-.106l-.105-.106v-.105h.422c.106 0 .106 0 .211-.106.106-.106.106-.211 0-.317l-.633-.316h-.211l-.106.105c-.105.106-.105.211-.105.317l.316.95v.211c0 .106-.105.211-.105.211v.211l-.106.106v.422c0 .106.106.211.211.211h.106c.105 0 .105 0 .105.106l.212.21v.106s-.106.106 0 .106c0 0 .105.105.105 0h.211c0 .105.106.105.106.211l.105.106h.317c.106 0 .106.105.106.105 0 .106-.106.317-.106.422v.106h-.211-.106-.105-.106v.105s.106 0 .106.106h.528c.105.106.21.211.422.317.105.105.21.105.21.105h.423c.106 0 .211-.105.106-.21 0-.106-.106-.106-.106-.212v-.106c0-.105.106-.105.106-.21 0-.106 0-.212-.106-.212-.105 0-.105-.105-.211-.105v-.106c.106-.105.211-.317.317-.422 0 0 .105-.106.105 0 .106 0 .211 0 .317.105h.422a.227.227 0 0 0 .211-.21v-.317s0-.106.106-.106l.633-.317h.211l.106.106s.105 0 .105.106c.106 0 .211 0 .317.105h.422c.422.211.845.422 1.267.739H19c.106 0 .106-.106.211-.106h.317s.105 0 .105.106h.211c.106 0 .106-.106.106-.106v-.105c0-.106.106-.211.106-.106.105 0 .105 0 .21.106 0 0 .106 0 .106.105 0 .106.106.106.211.106h.528s.106 0 .106.106c.105.105.21.105.316 0 .106 0 .317-.106.423-.106h.527c.106 0 .106-.106.106-.106v-.316-.106-.105s0-.106.105-.106h.423c.105 0 .105 0 .21.106.106.105.212.316.317.422 0 .105.106.105.212.105.105 0 .21.106.316.106l.106.106c0 .105 0 .105.105.105h.211v-.105h.106c.106 0 .106.105.106.105v.422c0 .106-.106.106-.106.106h-.106-.105l-.106.105c0 .106 0 .106.106.212 0 .105.105.105.105.105h.106s.106 0 .106-.105l.316-.634v-.105c0-.317-.105-.634-.21-.95 0-.106 0-.106-.106-.106s-.106-.105-.212-.105h-.21-.106c-.106 0-.106-.106-.211-.106-.106 0-.106-.106-.106-.211.106-.317.211-.528.211-.739 0-.106.106-.106.211-.106h.423s.105 0 .105-.105c0 0 .106-.106.106 0 .105 0 .21 0 .21.105.106 0 .212 0 .212-.105v-.317c0-.105 0-.105.105-.105h.106s.106 0 .106.105c0 0 0 .106.105.106h.106v-.317s0-.105.105-.105c.106 0 .106.105.106.105v.95s0 .106-.106.106c-.105 0-.105.105 0 .21.211.423.317.845.528 1.162 0 0 0 .105.106.105.105 0 .105 0 .105-.105v-1.056c0-.105 0-.105-.105-.21 0 0 0-.106-.106-.106-.106-.106-.106-.106-.106-.211v-.212c0-.105 0-.105.106-.105 0 0 .106 0 .106-.106h.316c.106 0 .211 0 .211-.105.106-.106.106-.211.211-.422h.106c.106 0 .106 0 .106-.106v-.106c-.106-.105-.212-.21-.317-.422h-.106l-.105-.105V15.2s0-.106-.106-.106v-.105h.106v.105h.316l.106.106.106.106h.211c.21-.845.105-.845.105-.95zM21.956 11.083c.105 0 .21 0 .316.106l.106.105s0 .106-.106.106h-.21s-.106 0-.106-.106v-.21z"/>
                <path d="M21.956 12.033h.21s.106 0 0-.105l-.21-.211h-.106s-.106 0-.106.105c.106 0 .106 0 .212.211-.106-.105-.106 0 0 0zM14.144 11.294l.212-.21v-.106h-.106c-.106.105-.211.21-.211.316v.106s.105 0 .105-.106zM13.933 11.506c0 .105-.105.105-.105.105v-.105c0-.106.105-.106.105 0-.105-.106 0-.106 0-.106.106 0 .106.106 0 .106zM13.828 11.294s0-.105.105-.105v-.106-.105.422l-.105-.106zM13.194 11.717c.106 0 .106 0 .106-.106l.106-.105V11.4H13.3c0 .106-.106.211-.106.317zM27.022 18.261v-.105c.106.105.106.105 0 .105.106 0 .106 0 0 0zM27.022 18.683s-.105 0 0 0c-.105 0-.105 0 0 0-.105 0 0 0 0 0zM26.706 19.106s0-.106 0 0c0-.106.105-.106.105-.106h.106c-.106 0-.106.106-.211.106zM26.389 19.211c0-.105.105-.105.105-.211h.106c0 .211-.106.211-.211.211.105 0 .105 0 0 0zM16.783 10.556s0-.106.106-.106v-.211l-.106-.106h-.105v.317s.105 0 .105.106c-.105 0-.105 0 0 0z"/>
            </g>
            <path d="M8.55 8.55c-5.7 5.7-5.7 15.094 0 20.794 4.328 4.328 10.661 5.384 15.939 3.273.844-.317 1.794-.845 2.533-1.373.845-.527 1.584-1.16 2.322-1.9 5.7-5.7 5.7-15.094 0-20.794-5.805-5.7-15.094-5.7-20.794 0z"/>
            <path fill="url(#c)" fill-rule="nonzero" d="M8.55 8.55c5.7-5.7 15.094-5.7 20.794 0-.844-.844-.844-2.111 0-2.956.845-.844 2.112-.844 2.956 0-7.389-7.388-19.422-7.388-26.706 0 .845-.844 2.112-.844 2.956 0 .739.845.739 2.217 0 2.956"/>
            <path fill="url(#d)" fill-rule="nonzero" d="M29.344 32.406c-.844-.845-.844-2.112 0-2.956-5.7 5.7-15.094 5.7-20.794 0 .844.844.844 2.111 0 2.956-.844.844-2.111.844-2.956 0 7.39 7.388 19.423 7.388 26.706 0-.844.738-2.217.738-2.956 0z"/>
            <path fill="url(#e)" fill-rule="nonzero" d="M9.078 7.178c0 .528-.211 1.055-.634 1.478 5.7-5.7 15.095-5.7 20.795 0a2.084 2.084 0 0 1-.633-1.478c-5.49-5.067-13.934-5.067-19.528 0z"/>
            <path fill="url(#f)" fill-rule="nonzero" d="M28.711 30.822c0-.528.211-1.055.633-1.478-5.7 5.7-15.094 5.7-20.794 0 .422.423.633.95.633 1.478 5.49 5.067 13.934 5.067 19.528 0z"/>
            <path fill="url(#g)" fill-rule="nonzero" d="M6.65 27.128c-.528-.845-.95-1.69-1.372-2.534-2.111-5.277-1.056-11.61 3.272-15.938.844-.845.844-2.112 0-2.956-.844-.844-2.111-.844-2.956 0-6.438 6.439-7.283 16.467-2.427 23.75.739 1.056 1.477 2.006 2.427 2.956.845.844 2.112.844 2.956 0 .844-.845.844-2.112 0-2.956-.739-.739-1.372-1.583-1.9-2.322z"/>
            <path fill="url(#h)" fill-rule="nonzero" d="M32.3 5.594c-.844-.844-2.111-.844-2.956 0-.844.845-.844 2.112 0 2.956 5.7 5.7 5.7 15.094 0 20.794-.844.845-.844 2.112 0 2.956.845.844 2.112.844 2.956 0 7.389-7.283 7.389-19.317 0-26.706z"/>
            <path fill="url(#i)" fill-rule="nonzero" d="M30.189 32.406c-.845-.845-.845-2.112 0-2.956 5.7-5.7 5.7-15.094 0-20.794-.845-.845-.845-2.112 0-2.956.317-.317.633-.528 1.055-.528-.633-.105-1.372 0-1.9.528-.844.844-.844 2.111 0 2.956 5.7 5.7 5.7 15.094 0 20.794-.844.844-.844 2.111 0 2.956.528.527 1.267.738 1.9.527-.422-.105-.738-.316-1.055-.527z"/>
            <path fill="url(#j)" fill-rule="nonzero" d="M7.6 32.406c.844-.845.844-2.112 0-2.956-5.7-5.7-5.7-15.094 0-20.794.844-.845.844-2.112 0-2.956-.317-.317-.633-.528-1.056-.528.634-.105 1.373 0 1.9.528.845.844.845 2.111 0 2.956-5.7 5.7-5.7 15.094 0 20.794.845.844.845 2.111 0 2.956-.527.527-1.266.738-1.9.527.423-.105.74-.316 1.056-.527z"/>
            <path fill="url(#k)" fill-rule="nonzero" d="M25.756 13.089c0 2.111-3.062.528-6.862.528-3.8 0-6.86 1.477-6.86-.528 0-2.006 3.06-3.906 6.86-3.906 3.8 0 6.862 1.795 6.862 3.906z"/>
        </g>
        <path fill="#17A083" d="M132.634 8.047h71l-5 26h-71z"/>
        <path fill="#17A083" d="M129 27h60l-5 26h-60z"/>
        <path fill="#FFF" d="M147.294 25.701h-2.113l1.546-8.779h-3.07l-1.545 8.779H140l1.855-10.555h7.293l-1.854 10.555zm4.519-3.712l-.655 3.712h-2.113l1.855-10.555 3.437.007c.937.03 1.672.36 2.204.99.533.63.757 1.444.674 2.44-.098 1.033-.496 1.861-1.192 2.482-.697.621-1.585.932-2.665.932l-1.545-.008zm.309-1.776l1.361.015c.525-.01.933-.21 1.222-.598.29-.39.427-.912.412-1.57-.01-.333-.09-.599-.243-.797a.833.833 0 0 0-.633-.326l-1.538-.015-.581 3.291zm9.016 5.633c-.942-.02-1.69-.324-2.241-.913-.552-.59-.853-1.41-.902-2.458-.02-.362-.005-.73.044-1.102l.273-1.754c.142-.938.419-1.769.831-2.494.412-.725.925-1.264 1.538-1.616.614-.353 1.306-.522 2.076-.508.952.02 1.699.34 2.241.96.542.622.833 1.471.872 2.549.01.406-.012.79-.066 1.152l-.243 1.617c-.22 1.45-.718 2.58-1.49 3.389-.773.81-1.75 1.202-2.933 1.178zm2.554-6.256c.059-.498.088-.882.088-1.153-.025-1.077-.42-1.63-1.185-1.66-.589-.024-1.063.195-1.424.656-.36.462-.612 1.185-.755 2.171l-.257 1.776c-.059.479-.081.853-.066 1.124.024 1.015.429 1.54 1.214 1.573.56.02 1.018-.183 1.376-.609.359-.425.609-1.121.751-2.088l.258-1.79zm10.245 2.588c-.133 1.145-.56 2.05-1.285 2.715-.723.664-1.64.982-2.749.953-.951-.02-1.687-.329-2.208-.928-.52-.6-.794-1.43-.824-2.494-.01-.362.01-.727.059-1.094l.272-1.747c.231-1.494.73-2.637 1.498-3.43.768-.792 1.721-1.176 2.86-1.152.995.015 1.76.34 2.296.975.535.636.802 1.557.802 2.766l-2.127-.008.015-.717c-.015-.812-.4-1.23-1.156-1.254-.584-.02-1.045.19-1.384.627-.338.437-.566 1.146-.684 2.127l-.265 1.82c-.069.58-.105.96-.11 1.138-.05 1.044.323 1.583 1.118 1.617.496.024.89-.105 1.185-.388.295-.283.5-.787.619-1.512l2.068-.014zm8.883-5.256h-2.568l-1.546 8.779h-2.12l1.546-8.779H175.6l.317-1.776h7.22l-.317 1.776zm3.224 8.924c-.942-.02-1.69-.324-2.241-.913-.552-.59-.853-1.41-.902-2.458-.02-.362-.005-.73.044-1.102l.273-1.754c.142-.938.42-1.769.831-2.494.412-.725.925-1.264 1.538-1.616.614-.353 1.306-.522 2.076-.508.952.02 1.699.34 2.241.96.542.622.833 1.471.872 2.549.01.406-.012.79-.066 1.152l-.243 1.617c-.22 1.45-.717 2.58-1.49 3.389-.773.81-1.75 1.202-2.933 1.178zm2.554-6.256c.059-.498.088-.882.088-1.153-.025-1.077-.42-1.63-1.185-1.66-.589-.024-1.063.195-1.424.656-.36.462-.612 1.185-.754 2.171l-.258 1.776c-.059.479-.081.853-.066 1.124.024 1.015.429 1.54 1.214 1.573.56.02 1.018-.183 1.376-.609.359-.425.609-1.121.751-2.088l.258-1.79zM143.336 36.575h-3.705l-1.534 8.779H136l1.841-10.556h5.809l-.314 1.777zm5.947 4.212h-3.244l-.49 2.798h3.844l-.314 1.769h-5.933l1.841-10.556h5.926l-.315 1.777h-3.82l-.44 2.493h3.252l-.307 1.719zm3.807.855l-.65 3.712h-2.097l1.84-10.556 3.413.008c.93.029 1.66.358 2.188.99.529.63.752 1.443.669 2.439-.098 1.034-.492 1.862-1.184 2.483-.691.62-1.573.931-2.645.931l-1.534-.007zm.307-1.776l1.352.014c.52-.01.925-.209 1.212-.598.288-.389.424-.912.41-1.57-.01-.333-.09-.599-.242-.797a.826.826 0 0 0-.628-.326l-1.527-.014-.577 3.29zm8.95 5.633c-.935-.02-1.677-.324-2.225-.914-.548-.59-.846-1.408-.895-2.457-.02-.363-.004-.73.044-1.102l.27-1.755c.142-.937.417-1.768.826-2.493.41-.725.918-1.264 1.527-1.617.61-.353 1.296-.522 2.06-.508.946.02 1.687.34 2.226.961.538.621.826 1.47.865 2.548.01.406-.012.79-.065 1.153l-.242 1.617c-.219 1.45-.712 2.58-1.48 3.389-.766.81-1.737 1.202-2.91 1.178zm2.536-6.257c.058-.497.087-.882.087-1.152-.024-1.078-.416-1.631-1.176-1.66a1.611 1.611 0 0 0-1.414.656c-.358.461-.607 1.185-.749 2.171l-.255 1.776c-.059.479-.08.853-.066 1.124.024 1.015.426 1.54 1.205 1.573.556.02 1.011-.184 1.367-.609.355-.425.604-1.121.745-2.088l.256-1.79zm9.476-4.444h2.141l-1.849 10.556h-2.097l1.206-6.858-4.187 6.858h-2.148l1.849-10.556h2.104l-1.205 6.866 4.186-6.866zM175.755 32c-.04.672-.303 1.206-.793 1.602-.49.397-1.09.585-1.801.566-.692-.01-1.247-.212-1.666-.606-.419-.394-.628-.912-.628-1.555l1.468.007c-.02.624.263.94.848.95.312.005.561-.078.749-.25a1.24 1.24 0 0 0 .369-.692l1.454-.022z"/>
    </g>
</svg>
