<?xml version="1.0" encoding="UTF-8" standalone="no"?>
<svg id="Layer_1" xmlns="http://www.w3.org/2000/svg" xml:space="preserve" viewBox="0 0 222 40" version="1.1" y="0" x="0" xmlns:xlink="http://www.w3.org/1999/xlink" enable-background="new 0 0 222 40"><style type="text/css">.st0{fill:url(#SVGID_1_)}.st1{opacity:.87}.st2{clip-path:url(#SVGID_3_)}.st3{fill:#fff}.st4{opacity:.6}.st5{fill:none}.st6{fill:url(#SVGID_4_)}.st7{fill:url(#SVGID_5_)}.st8{fill:url(#SVGID_6_)}.st9{fill:url(#SVGID_7_)}.st10{fill:url(#SVGID_8_)}.st11{fill:url(#SVGID_9_)}.st12{fill:url(#SVGID_10_)}.st13{fill:url(#SVGID_11_)}.st14{fill:url(#SVGID_12_)}</style><path d="m45.5 16.4c-3.1 0-5.1-1.7-5.1-4.2 0-2.7 2.2-4.2 5.1-4.2v-1h1.7v0.9c2.7 0 5.1 1.4 5.1 4.2 0 2.6-2.1 4.2-5 4.2h-0.1v1.2h-1.7v-1.1zm-0.1-1.7l0.1-5.2c-1.9 0-3.3 0.8-3.3 2.6 0 1.5 1.1 2.6 3.2 2.6zm1.8-5.2v5.2h0.1c1.9 0 3.2-0.9 3.2-2.6 0-1.6-1.1-2.6-3.3-2.6z"/><path d="m54.3 7.2h7.6v1.7h-5.9v2.6h5.4v1.5h-5.4v2.7h6v1.7h-7.7v-10.2z"/><path d="m63.9 15.7h1.1c0.7-1 1.1-2.5 1.1-7.1v-1.4h7.2v8.5h1.2v3.4h-1.7v-1.8h-7.3v1.8h-1.7v-3.4zm3.9-6.2c0 3.2-0.3 5.1-1 6.3h4.7v-7h-3.8v0.7z"/><path d="m76.5 7.2h7.5v1.7h-5.8v2.6h5.4v1.5h-5.4v2.7h6v1.7h-7.7v-10.2z"/><path d="m86.1 17.4v-10.2h4.1c3.4 0 4.2 1.7 4.2 3.3 0 1.7-1.1 3.3-4.2 3.3h-2.3v3.5h-1.8zm1.8-8.6v3.4h2.3c1.7 0 2.4-0.7 2.4-1.7s-0.6-1.7-2.3-1.7h-2.4z"/><path d="m98 7.2h1.3l4.5 10.2h-1.8l-1-2.3h-4.6l-1 2.3h-1.8l4.4-10.2zm-1.1 6.4h3.3l-1.7-3.9-1.6 3.9z"/><path d="m112.4 8.8h-3.9v1.4c0 5.7-1.6 7.2-3.2 7.2h-0.6v-1.7c1.1 0.1 2.1-0.5 2.1-6.2v-2.3h7.4v10.2h-1.8v-8.6z"/><path d="m117.8 10.8h2.3c2.8 0 4.2 1.1 4.2 3.2 0 2.2-1.6 3.4-4.3 3.4h-4v-10.2h1.8v3.6zm0 1.6v3.3h2.2c1.6 0 2.4-0.6 2.4-1.7s-0.8-1.6-2.4-1.6h-2.2z"/><path d="m133.3 13.1h-5.3v4.3h-1.8v-10.2h1.8v4.2h5.3v-4.2h1.8v10.2h-1.8v-4.3z"/><path d="m142.2 7.1c2.9 0 5.2 2.2 5.2 5.2s-2.3 5.2-5.2 5.2-5.2-2.2-5.2-5.2c0-2.9 2.3-5.2 5.2-5.2zm0 8.7c1.9 0 3.4-1.4 3.4-3.5s-1.6-3.5-3.4-3.5-3.4 1.4-3.4 3.5 1.6 3.5 3.4 3.5z"/><path d="m149.4 7.2h7.6v1.7h-5.8v2.6h5.4v1.5h-5.4v2.7h6v1.7h-7.7v-10.2z"/><path d="m44.4 22.7h1.3l4.5 10.2h-1.8l-1-2.3h-4.6l-1 2.3h-1.8l4.4-10.2zm-1 6.4h3.3l-1.7-3.8-1.6 3.8z"/><path d="m51.2 22.7h7.4v1.7h-5.7v8.5h-1.8v-10.2z"/><path d="m59.9 22.7h7.6v1.7h-5.8v2.6h5.3v1.6h-5.4v2.7h6v1.7h-7.7v-10.3z"/><path d="m76.3 28.6h-5.3v4.3h-1.8v-10.2h1.8v4.2h5.3v-4.2h1.7v10.2h-1.8v-4.3z"/><path d="m80 22.7h8.6v1.7h-3.4v8.5h-1.8v-8.5h-3.4v-1.7z"/><path d="m97.9 31.1c-0.8 1.2-2.4 1.9-4.1 1.9-3.2 0-5.2-2.1-5.2-5.2 0-2.9 2.1-5.2 5.2-5.2 1.8 0 3.3 0.7 4 1.8l-1.2 1.1c-0.7-0.8-1.6-1.2-2.7-1.2-2.1 0-3.5 1.4-3.5 3.5s1.5 3.5 3.5 3.5c1.3 0 2.3-0.5 3-1.3l1 1.1z"/><path d="m98.9 22.7h8.6v1.7h-3.4v8.5h-1.8v-8.5h-3.4v-1.7z"/><path d="m109.4 22.7h4.3c2.7 0 3.6 1.1 3.6 2.6 0 1.1-0.5 1.8-1.2 2.3 1 0.3 1.6 1.1 1.6 2.4 0 2.1-1.6 3-4 3h-4.2v-10.3zm1.8 1.7v2.5h2.5c1.1 0 1.8-0.5 1.8-1.2 0-0.9-0.5-1.3-2-1.3h-2.3zm0 4.1v2.7h2.4c1.6 0 2.3-0.4 2.3-1.4 0-0.9-0.6-1.3-2.2-1.3h-2.5z"/><path d="m124.7 22.6c2.9 0 5.2 2.2 5.2 5.2s-2.3 5.2-5.2 5.2-5.2-2.2-5.2-5.2c0-2.9 2.3-5.2 5.2-5.2zm0 8.7c1.9 0 3.4-1.4 3.4-3.5s-1.6-3.5-3.4-3.5-3.4 1.4-3.4 3.5c0.1 2.1 1.6 3.5 3.4 3.5z"/><path d="m145.2 28.6h-5.3v4.3h-1.8v-10.2h1.8v4.2h5.3v-4.2h1.8v10.2h-1.8v-4.3z"/><path d="m154.1 22.6c2.9 0 5.2 2.2 5.2 5.2s-2.3 5.2-5.2 5.2-5.2-2.2-5.2-5.2c0-2.9 2.2-5.2 5.2-5.2zm0 8.7c1.9 0 3.4-1.4 3.4-3.5s-1.6-3.5-3.4-3.5-3.4 1.4-3.4 3.5 1.6 3.5 3.4 3.5z"/><path d="m161.2 22.7h4.3c2.7 0 3.6 1.1 3.6 2.6 0 1.1-0.5 1.8-1.2 2.3 1 0.3 1.6 1.1 1.6 2.4 0 2.1-1.6 3-4 3h-4.2v-10.3zm1.7 1.7v2.5h2.5c1.1 0 1.8-0.5 1.8-1.2 0-0.9-0.5-1.3-2-1.3h-2.3zm0 4.1v2.7h2.4c1.6 0 2.3-0.4 2.3-1.4 0-0.9-0.6-1.3-2.2-1.3h-2.5z"/><path d="m176.5 22.6c2.9 0 5.2 2.2 5.2 5.2s-2.3 5.2-5.2 5.2-5.2-2.2-5.2-5.2c0-2.9 2.3-5.2 5.2-5.2zm0 8.7c1.9 0 3.4-1.4 3.4-3.5s-1.6-3.5-3.4-3.5-3.4 1.4-3.4 3.5c0.1 2.1 1.6 3.5 3.4 3.5z"/><path d="m193 31.1c-0.8 1.2-2.4 1.9-4.1 1.9-3.2 0-5.2-2.1-5.2-5.2 0-2.9 2.1-5.2 5.2-5.2 1.8 0 3.3 0.7 4 1.8l-1.2 1.1c-0.7-0.8-1.6-1.2-2.7-1.2-2.1 0-3.5 1.4-3.5 3.5s1.5 3.5 3.5 3.5c1.3 0 2.3-0.5 3-1.3l1 1.1z"/><path d="m194 22.7h8.6v1.7h-3.4v8.5h-1.8v-8.5h-3.4v-1.7z"/><path d="m203.5 22.7h7.6v1.7h-5.8v2.6h5.4v1.6h-5.4v2.7h6v1.7h-7.7v-10.3z"/><path d="m213.2 32.9v-10.2h1.8v7.1l5.6-7.1h1.5v10.2h-1.8v-7.1l-5.6 7.1h-1.5zm3.1-13.2c0.2 0.6 0.6 0.9 1.3 0.9 0.6 0 1.1-0.3 1.3-0.9h1.7c-0.1 1.3-1.3 2.3-2.9 2.3-1.8 0-2.7-1-3-2.3h1.6z"/><linearGradient id="SVGID_1_" y2="858.38" gradientUnits="userSpaceOnUse" x2="820.79" gradientTransform="translate(-802.88 -828.55)" y1="837.84" x1="820.79"><stop stop-color="#44B873" offset=".335"/><stop stop-color="#3AB06E" offset=".492"/><stop stop-color="#1E9B61" offset=".762"/><stop stop-color="#008453" offset="1"/></linearGradient><circle cy="20" cx="17.9" r="10" class="st0"/><g class="st1"><defs><circle id="SVGID_2_" cy="20" cx="17.9" r="10" class="st1"/></defs><clipPath id="SVGID_3_"><use overflow="visible" xlink:href="#SVGID_2_"/></clipPath><g class="st2"><path class="st3" d="m26.5 15.6l-0.1-0.1-0.1-0.1v-0.2c0-0.1-0.1-0.1-0.1-0.2h-0.1-0.1-0.1-0.1l-0.1-0.1c-0.2-0.1-0.3-0.1-0.5-0.2 0 0-0.1 0-0.1-0.1-0.1-0.1-0.2-0.1-0.3-0.2l-0.1-0.1c-0.1 0-0.2-0.1-0.4-0.1-0.1 0-0.1 0.1-0.1 0.1 0.1 0.1 0.1 0.2 0.2 0.2v0.1h-0.1l-0.2-0.2c-0.1-0.1-0.1-0.1-0.2-0.1h-0.6c-0.1 0-0.1-0.1-0.1-0.1v-0.1l-0.1-0.1c0-0.1-0.1-0.1-0.2-0.1h-0.2c-0.1 0-0.1 0-0.2 0.1h-0.2c-0.1-0.1-0.2-0.2-0.4-0.3l-0.1-0.1c-0.3-0.1-0.5-0.1-0.8-0.2-0.1 0-0.1 0.1-0.1 0.1 0 0.1 0.1 0.2 0.1 0.3v0.2c-0.1 0.1-0.3 0.1-0.4 0.2-0.1 0-0.2 0-0.3-0.1-0.2-0.2-0.4-0.4-0.5-0.6l-0.1-0.1h-0.2c-0.1 0-0.1 0.1-0.1 0.1v0.1 0.1c-0.3 0-0.5-0.1-0.8-0.1-0.1 0-0.2 0-0.2 0.1-0.1 0.1-0.2 0.1-0.3 0.2 0 0-0.1 0-0.1-0.1 0.1-0.2 0.1-0.4 0.2-0.6 0-0.1 0-0.2-0.1-0.2l-0.3-0.3s-0.1-0.1-0.2 0h-0.2c-0.1 0-0.1-0.1-0.2-0.1h-0.1c-0.2 0-0.3 0.2-0.2 0.3v0.1c0 0.1 0 0.2-0.1 0.2l-0.9 0.6c-0.1 0.1-0.1 0.2 0 0.2 0 0 0.1 0 0.1 0.1v0.1c-0.1 0-0.2 0.1-0.3 0.2 0 0-0.1 0-0.1 0.1-0.1 0.1-0.2 0.1-0.3 0.2s-0.1 0.2-0.1 0.3c0.1 0.2 0.1 0.5 0.2 0.7h0.1 0.2c0.1 0.1 0.2 0.2 0.2 0.3v0.1h-0.1c-0.1-0.1-0.1-0.2-0.2-0.2h-0.1v0.1c0 0.1 0 0.1 0.1 0.2 0 0.1 0 0.2-0.1 0.2l-0.1 0.1h-0.1v-0.1l0.1-0.1s0.1-0.1 0-0.1c-0.1-0.4-0.2-0.8-0.3-1.1 0-0.1-0.1-0.1-0.2-0.1h-0.1c-0.1 0-0.1 0-0.1 0.1v0.8c0 0.1-0.1 0.2-0.2 0.2h-0.2c-0.1 0-0.3 0-0.4-0.1h-0.1v0.1h0.1v0.1c-0.3 0.2-0.6 0.4-0.9 0.7-0.1 0-0.1 0.1-0.2 0.1s-0.2 0.1-0.3 0.1-0.1 0.1-0.2 0.1l-0.4 0.4c-0.1 0.1-0.1 0.1-0.2 0h-0.1l-0.1-0.1v-0.1h0.1 0.3c0.1 0 0.1 0 0.2-0.1s0.1-0.2 0-0.3l-0.6-0.3h-0.2l-0.1 0.1c-0.1 0.1-0.1 0.2-0.1 0.3l0.3 0.9v0.2c0 0.1-0.1 0.2-0.1 0.2v0.1 0.1l-0.1 0.1v0.4c0 0.1 0.1 0.2 0.2 0.2h0.1c0.1 0 0.1 0 0.1 0.1l0.2 0.2v0.1s-0.1 0.1 0 0.1c0 0 0.1 0.1 0.1 0h0.1 0.1c0 0.1 0.1 0.1 0.1 0.2l0.1 0.1h0.3c0.1 0 0.1 0.1 0.1 0.1 0 0.1-0.1 0.3-0.1 0.4v0.1h-0.2-0.1-0.1-0.1v0.1s0.1 0 0.1 0.1h0.1 0.3 0.1c0.1 0.1 0.2 0.2 0.4 0.3 0.1 0.1 0.2 0.1 0.2 0.1h0.4c0.1 0 0.2-0.1 0.1-0.2 0-0.1-0.1-0.1-0.1-0.2v-0.1c0-0.1 0.1-0.1 0.1-0.2s0-0.2-0.1-0.2-0.1-0.1-0.2-0.1v-0.1c0.1-0.1 0.2-0.3 0.3-0.4 0 0 0.1-0.1 0.1 0 0.1 0 0.2 0 0.3 0.1h0.1 0.3c0.1 0 0.2-0.1 0.2-0.2v-0.3s0-0.1 0.1-0.1l0.6-0.3h0.2l0.1 0.1s0.1 0 0.1 0.1c0.1 0 0.2 0 0.3 0.1h0.1 0.1 0.2c0.4 0.2 0.8 0.4 1.2 0.7h0.2c0.1 0 0.1-0.1 0.2-0.1h0.1 0.1 0.1s0.1 0 0.1 0.1h0.1 0.1c0.1 0 0.1-0.1 0.1-0.1v-0.1c0-0.1 0.1-0.2 0.1-0.1 0.1 0 0.1 0 0.2 0.1 0 0 0.1 0 0.1 0.1s0.1 0.1 0.2 0.1h0.3 0.2s0.1 0 0.1 0.1c0.1 0.1 0.2 0.1 0.3 0 0.1 0 0.3-0.1 0.4-0.1h0.1 0.3 0.1c0.1 0 0.1-0.1 0.1-0.1v-0.3-0.1-0.1s0-0.1 0.1-0.1h0.4c0.1 0 0.1 0 0.2 0.1s0.2 0.3 0.3 0.4c0 0.1 0.1 0.1 0.2 0.1s0.2 0.1 0.3 0.1l0.1 0.1c0 0.1 0 0.1 0.1 0.1h0.1 0.1v-0.1h0.1c0.1 0 0.1 0.1 0.1 0.1v0.4c0 0.1-0.1 0.1-0.1 0.1h-0.1-0.1l-0.1 0.1c0 0.1 0 0.1 0.1 0.2 0 0.1 0.1 0.1 0.1 0.1h0.1s0.1 0 0.1-0.1l0.3-0.6v-0.1c0-0.3-0.1-0.6-0.2-0.9 0-0.1 0-0.1-0.1-0.1s-0.1-0.1-0.2-0.1h-0.2-0.1c-0.1 0-0.1-0.1-0.2-0.1s-0.1-0.1-0.1-0.2c0.1-0.3 0.2-0.5 0.2-0.7 0-0.1 0.1-0.1 0.2-0.1h0.4s0.1 0 0.1-0.1c0 0 0.1-0.1 0.1 0 0.1 0 0.2 0 0.2 0.1 0.1 0 0.2 0 0.2-0.1v-0.3c0-0.1 0-0.1 0.1-0.1h0.1s0.1 0 0.1 0.1c0 0 0 0.1 0.1 0.1h0.1v-0.3s0-0.1 0.1-0.1 0.1 0.1 0.1 0.1v0.3 0.1 0.1 0.4s0 0.1-0.1 0.1-0.1 0.1 0 0.2c0.2 0.4 0.3 0.8 0.5 1.1 0 0 0 0.1 0.1 0.1s0.1 0 0.1-0.1v-1c0-0.1 0-0.1-0.1-0.2 0 0 0-0.1-0.1-0.1-0.1-0.1-0.1-0.1-0.1-0.2v-0.2c0-0.1 0-0.1 0.1-0.1 0 0 0.1 0 0.1-0.1h0.2 0.1c0.1 0 0.2 0 0.2-0.1 0.1-0.1 0.1-0.2 0.2-0.4h0.1c0.1 0 0.1 0 0.1-0.1v-0.1c-0.1-0.1-0.2-0.2-0.3-0.4h-0.1l-0.1-0.1v-0.3s0-0.1-0.1-0.1v-0.1h0.1v0.1h0.1 0.1 0.1l0.1 0.1 0.1 0.1h0.1 0.1c0.2-0.8 0.1-0.8 0.1-0.9z"/><path class="st3" d="m26.5 15.6l-0.1-0.1-0.1-0.1v-0.2c0-0.1-0.1-0.1-0.1-0.2h-0.1-0.1-0.1-0.1l-0.1-0.1c-0.2-0.1-0.3-0.1-0.5-0.2 0 0-0.1 0-0.1-0.1-0.1-0.1-0.2-0.1-0.3-0.2l-0.1-0.1c-0.1 0-0.2-0.1-0.4-0.1-0.1 0-0.1 0.1-0.1 0.1 0.1 0.1 0.1 0.2 0.2 0.2v0.1h-0.1l-0.2-0.2c-0.1-0.1-0.1-0.1-0.2-0.1h-0.6c-0.1 0-0.1-0.1-0.1-0.1v-0.1l-0.1-0.1c0-0.1-0.1-0.1-0.2-0.1h-0.2c-0.1 0-0.1 0-0.2 0.1h-0.2c-0.1-0.1-0.2-0.2-0.4-0.3l-0.1-0.1c-0.3-0.1-0.5-0.1-0.8-0.2-0.1 0-0.1 0.1-0.1 0.1 0 0.1 0.1 0.2 0.1 0.3v0.2c-0.1 0.1-0.3 0.1-0.4 0.2-0.1 0-0.2 0-0.3-0.1-0.2-0.2-0.4-0.4-0.5-0.6l-0.1-0.1h-0.2c-0.1 0-0.1 0.1-0.1 0.1v0.1 0.1c-0.3 0-0.5-0.1-0.8-0.1-0.1 0-0.2 0-0.2 0.1-0.1 0.1-0.2 0.1-0.3 0.2 0 0-0.1 0-0.1-0.1 0.1-0.2 0.1-0.4 0.2-0.6 0-0.1 0-0.2-0.1-0.2l-0.3-0.3s-0.1-0.1-0.2 0h-0.2c-0.1 0-0.1-0.1-0.2-0.1h-0.1c-0.2 0-0.3 0.2-0.2 0.3v0.1c0 0.1 0 0.2-0.1 0.2l-0.9 0.6c-0.1 0.1-0.1 0.2 0 0.2 0 0 0.1 0 0.1 0.1v0.1c-0.1 0-0.2 0.1-0.3 0.2 0 0-0.1 0-0.1 0.1-0.1 0.1-0.2 0.1-0.3 0.2s-0.1 0.2-0.1 0.3c0.1 0.2 0.1 0.5 0.2 0.7h0.1 0.2c0.1 0.1 0.2 0.2 0.2 0.3v0.1h-0.1c-0.1-0.1-0.1-0.2-0.2-0.2h-0.1v0.1c0 0.1 0 0.1 0.1 0.2 0 0.1 0 0.2-0.1 0.2l-0.1 0.1h-0.1v-0.1l0.1-0.1s0.1-0.1 0-0.1c-0.1-0.4-0.2-0.8-0.3-1.1 0-0.1-0.1-0.1-0.2-0.1h-0.1c-0.1 0-0.1 0-0.1 0.1v0.8c0 0.1-0.1 0.2-0.2 0.2h-0.2c-0.1 0-0.3 0-0.4-0.1h-0.1v0.1h0.1v0.1c-0.3 0.2-0.6 0.4-0.9 0.7-0.1 0-0.1 0.1-0.2 0.1s-0.2 0.1-0.3 0.1-0.1 0.1-0.2 0.1l-0.4 0.4c-0.1 0.1-0.1 0.1-0.2 0h-0.1l-0.1-0.1v-0.1h0.1 0.3c0.1 0 0.1 0 0.2-0.1s0.1-0.2 0-0.3l-0.6-0.3h-0.2l-0.1 0.1c-0.1 0.1-0.1 0.2-0.1 0.3l0.3 0.9v0.2c0 0.1-0.1 0.2-0.1 0.2v0.1 0.1l-0.1 0.1v0.4c0 0.1 0.1 0.2 0.2 0.2h0.1c0.1 0 0.1 0 0.1 0.1l0.2 0.2v0.1s-0.1 0.1 0 0.1c0 0 0.1 0.1 0.1 0h0.1 0.1c0 0.1 0.1 0.1 0.1 0.2l0.1 0.1h0.3c0.1 0 0.1 0.1 0.1 0.1 0 0.1-0.1 0.3-0.1 0.4v0.1h-0.2-0.1-0.1-0.1v0.1s0.1 0 0.1 0.1h0.1 0.3 0.1c0.1 0.1 0.2 0.2 0.4 0.3 0.1 0.1 0.2 0.1 0.2 0.1h0.4c0.1 0 0.2-0.1 0.1-0.2 0-0.1-0.1-0.1-0.1-0.2v-0.1c0-0.1 0.1-0.1 0.1-0.2s0-0.2-0.1-0.2-0.1-0.1-0.2-0.1v-0.1c0.1-0.1 0.2-0.3 0.3-0.4 0 0 0.1-0.1 0.1 0 0.1 0 0.2 0 0.3 0.1h0.1 0.3c0.1 0 0.2-0.1 0.2-0.2v-0.3s0-0.1 0.1-0.1l0.6-0.3h0.2l0.1 0.1s0.1 0 0.1 0.1c0.1 0 0.2 0 0.3 0.1h0.1 0.1 0.2c0.4 0.2 0.8 0.4 1.2 0.7h0.2c0.1 0 0.1-0.1 0.2-0.1h0.1 0.1 0.1s0.1 0 0.1 0.1h0.1 0.1c0.1 0 0.1-0.1 0.1-0.1v-0.1c0-0.1 0.1-0.2 0.1-0.1 0.1 0 0.1 0 0.2 0.1 0 0 0.1 0 0.1 0.1s0.1 0.1 0.2 0.1h0.3 0.2s0.1 0 0.1 0.1c0.1 0.1 0.2 0.1 0.3 0 0.1 0 0.3-0.1 0.4-0.1h0.1 0.3 0.1c0.1 0 0.1-0.1 0.1-0.1v-0.3-0.1-0.1s0-0.1 0.1-0.1h0.4c0.1 0 0.1 0 0.2 0.1s0.2 0.3 0.3 0.4c0 0.1 0.1 0.1 0.2 0.1s0.2 0.1 0.3 0.1l0.1 0.1c0 0.1 0 0.1 0.1 0.1h0.1 0.1v-0.1h0.1c0.1 0 0.1 0.1 0.1 0.1v0.4c0 0.1-0.1 0.1-0.1 0.1h-0.1-0.1l-0.1 0.1c0 0.1 0 0.1 0.1 0.2 0 0.1 0.1 0.1 0.1 0.1h0.1s0.1 0 0.1-0.1l0.3-0.6v-0.1c0-0.3-0.1-0.6-0.2-0.9 0-0.1 0-0.1-0.1-0.1s-0.1-0.1-0.2-0.1h-0.2-0.1c-0.1 0-0.1-0.1-0.2-0.1s-0.1-0.1-0.1-0.2c0.1-0.3 0.2-0.5 0.2-0.7 0-0.1 0.1-0.1 0.2-0.1h0.4s0.1 0 0.1-0.1c0 0 0.1-0.1 0.1 0 0.1 0 0.2 0 0.2 0.1 0.1 0 0.2 0 0.2-0.1v-0.3c0-0.1 0-0.1 0.1-0.1h0.1s0.1 0 0.1 0.1c0 0 0 0.1 0.1 0.1h0.1v-0.3s0-0.1 0.1-0.1 0.1 0.1 0.1 0.1v0.3 0.1 0.1 0.4s0 0.1-0.1 0.1-0.1 0.1 0 0.2c0.2 0.4 0.3 0.8 0.5 1.1 0 0 0 0.1 0.1 0.1s0.1 0 0.1-0.1v-1c0-0.1 0-0.1-0.1-0.2 0 0 0-0.1-0.1-0.1-0.1-0.1-0.1-0.1-0.1-0.2v-0.2c0-0.1 0-0.1 0.1-0.1 0 0 0.1 0 0.1-0.1h0.2 0.1c0.1 0 0.2 0 0.2-0.1 0.1-0.1 0.1-0.2 0.2-0.4h0.1c0.1 0 0.1 0 0.1-0.1v-0.1c-0.1-0.1-0.2-0.2-0.3-0.4h-0.1l-0.1-0.1v-0.3s0-0.1-0.1-0.1v-0.1h0.1v0.1h0.1 0.1 0.1l0.1 0.1 0.1 0.1h0.1 0.1c0.2-0.8 0.1-0.8 0.1-0.9z"/><g class="st4"><path class="st3" d="m24.4 20.7h0.1v-0.1h0.2s0.1 0 0.1-0.1c0.1 0 0.1 0 0.1-0.1 0 0 0-0.1-0.1-0.1-0.1-0.1-0.2-0.1-0.3-0.2h-0.1-0.1v0.1 0.1h-0.1v0.1c0.1 0.2 0.1 0.2 0.2 0.3-0.1 0-0.1 0 0 0z"/><path class="st3" d="m23.5 22v0c0 0.1 0.1 0.1 0.1 0.2 0 0 0 0.1 0.1 0.1h0.1v-0.1s0-0.1 0.1-0.1c0 0 0.1 0 0.1-0.1h0.1 0.2s0.1 0 0.1-0.1h0.1 0.1 0.2l0.1-0.1v-0.3-0.1c0-0.1-0.1-0.2-0.1-0.3l-0.1-0.1-0.1 0.1v0.1 0.1 0.1c0 0.1 0 0.1-0.1 0.1h-0.1c-0.1 0-0.1 0-0.2 0.1 0 0-0.1 0-0.1 0.1 0 0 0 0.1-0.1 0.1h-0.2-0.1l-0.1 0.1-0.1 0.1v0.1c0-0.2-0.1-0.1 0-0.1z"/><path class="st3" d="m19.9 24.1s0.1 0 0 0h0.1v0.1 0.1 0.1 0.1 0.1 0.1 0.1s0 0.1 0.1 0.1v0.1 0.1 0.1 0.1l0.2 0.2h0.1v-0.1-0.1-0.2-0.1l-0.1-0.1h-0.1s-0.1 0-0.1-0.1c0 0 0-0.1-0.1-0.1h-0.1l0.1-0.2v-0.1-0.1l0.2 0.2h0.1 0.1s0 0.1-0.1 0.1v0.1h0.1l0.3-0.3 0.1-0.1v-0.2-0.1l-0.3-0.6v-0.1-0.1-0.1c0.1 0 0.1 0 0.2-0.1h0.1 0.1 0.1c0.2-0.1 0.3-0.1 0.5-0.2 0.1 0 0.1-0.1 0.2-0.1 0.1-0.2 0.3-0.4 0.4-0.5 0 0 0.1-0.1 0.1-0.2v-0.3c0-0.1 0-0.1-0.1-0.2l-0.2-0.2s-0.1-0.1-0.1-0.2 0-0.1 0.1-0.2v-0.1-0.1c0-0.1-0.1-0.1-0.2 0h-0.1l-0.1-0.1v-0.1-0.1c0.1-0.1 0.2-0.2 0.3-0.2h0.1v0.1 0.1h0.1l0.1-0.1s0.1 0 0.1-0.1c0 0 0 0.1 0.1 0.1v0.1 0.1h0.1l0.1 0.1v0.1 0.2 0.1h0.1 0.1l0.1-0.1v-0.1-0.2-0.1l-0.2-0.2-0.1-0.1v-0.1-0.1s0.1 0 0.1-0.1l0.1-0.1v-0.1-0.2-0.1-0.1-0.1h0.1c0.1 0 0.1 0 0.1-0.1v-0.4-0.1h-0.1s-0.1 0-0.1 0v0.1h-0.1-0.1c-0.1 0-0.1 0-0.1-0.1 0 0 0-0.1-0.1-0.1s-0.2-0.1-0.3-0.1-0.1-0.1-0.2-0.1c-0.1-0.1-0.2-0.3-0.3-0.4 0-0.1-0.1-0.1-0.2-0.1h-0.4s-0.1 0-0.1 0.1v0.1 0.1 0.3c0 0.1 0 0.1-0.1 0.1h-0.1-0.3-0.1c-0.2 0-0.3 0.1-0.4 0.1h-0.3l-0.1-0.1h-0.2-0.3c-0.1 0-0.1 0-0.1-0.1l-0.1-0.1c-0.1 0-0.1 0-0.2-0.1h-0.1v0.1 0.1 0.1h-0.1-0.1-0.1l-0.1-0.1h-0.1-0.1-0.2l-0.1 0.1h-0.1-0.1c-0.4-0.2-0.8-0.5-1.2-0.7h-0.2-0.1-0.1c-0.1 0-0.2 0-0.3-0.1h-0.1l-0.1-0.1s-0.1-0.1-0.2 0l-0.6 0.3-0.1 0.1v0.3c0 0.1-0.1 0.2-0.2 0.2h-0.3-0.1c-0.1 0-0.2-0.1-0.3-0.1h-0.1c-0.1 0.1-0.2 0.3-0.3 0.4v0.1 0.1l0.2 0.1c0.1 0 0.1 0.1 0.1 0.2v0.1s0 0.1-0.1 0.1c0 0 0 0.1-0.1 0.1v0.2l0.1 0.2v0.1c0 0.1 0 0.1-0.1 0.1h-0.2-0.2-0.1-0.1l-0.1 0.1h-0.1-0.2-0.1s-0.1-0.1-0.2-0.1h-0.2c-0.1 0-0.1 0-0.2 0.1h-0.1-0.1v0.1h-0.2-0.1v0.1c0 0.1 0 0.2 0.1 0.2 0 0 0.1 0 0.1 0.1h0.1 0.1 0.1 0.1 0.1 0.1 0.1v0.2 0.1 0.1 0.1 0.1h-0.8-0.1c-0.1 0-0.2-0.1-0.3-0.1h-0.1c-0.1 0-0.1 0-0.2 0.1v0.1h-0.1c-0.1 0-0.1-0.1-0.2-0.1h-0.1-0.1-0.1-0.1c-0.1 0-0.1-0.1-0.2-0.1v-0.1c0-0.1-0.1-0.2-0.2-0.2h-0.1c-0.4 0.1-0.7 0.2-1.1 0.3h-0.1-0.2-0.1-0.1-0.1v0.1c0 0.1 0 0.1-0.1 0.1 0 0-0.1 0-0.1 0.1-0.1 0.1-0.2 0.2-0.1 0.3v0.1l-0.2 0.2c-0.1 0.2-0.2 0.3-0.4 0.5-0.1 0.1-0.1 0.2 0 0.3 0.1 0.2 0.1 0.4 0.2 0.6 0 0.1 0.2 0.3 0.3 0.4s0.2 0.1 0.3 0.2l0.1 0.1c0 0.1 0.1 0.1 0.1 0.1 0.2 0.1 0.3 0.1 0.5 0.2h0.1 0.1 0.4c0.1 0 0.2 0 0.3-0.1 0 0 0.1 0 0.1-0.1l0.1-0.1h0.1 0.1 0.1s0.1 0 0.1 0.1 0.1 0.1 0.1 0.1h0.2s0.1 0 0.2 0.1l0.1 0.1v0.1 0.1 0.1s0 0.1 0.1 0.1c0.1 0.1 0.2 0.2 0.4 0.3 0 0 0 0.1 0.1 0.1l0.1 0.1c0.1 0.2 0.2 0.3 0.3 0.5v0.2 0.1 0.1c0 0.1 0 0.1 0.1 0.2v0.1c0 0.1 0.1 0.1 0.1 0.2l0.2 0.3c0.3 0.5 0.6 0.9 0.9 1.4l0.1 0.1c0.1 0.1 0.1 0.1 0.2 0.1h0.3 0.1c0.1 0 0.2-0.1 0.3-0.2 0.1-0.2 0.2-0.3 0.3-0.5 0-0.1 0-0.1-0.1-0.2 0 0 0-0.1 0.1-0.1h0.1v-0.1c0-0.1-0.1-0.2-0.1-0.4v-0.1-0.1l0.2-0.2s0.1-0.1 0.1-0.2v-0.2c0-0.1 0-0.2-0.1-0.3v-0.1s0-0.1-0.1-0.1l-0.1-0.1c0-0.1 0-0.2-0.1-0.3v-0.1-0.1c0.2-0.3 0.5-0.7 0.8-1 0.1-0.1 0.1-0.2 0.1-0.3v-0.3-0.1h-0.1c-0.1 0-0.2 0-0.3 0.1h-0.2-0.1s-0.1 0-0.1-0.1l-0.1-0.1-0.3-0.3c-0.1-0.1-0.1-0.1-0.1-0.2v-0.2h-0.1l-0.3-0.3c-0.1-0.2-0.3-0.3-0.4-0.5-0.1-0.1-0.1-0.2 0-0.3l0.1-0.1v0.1 0.1c0.4 0.4 0.7 0.8 1 1.2 0.1 0.1 0.1 0.1 0.1 0.2v0.2s0 0.1 0.1 0.1c0 0 0.1 0.1 0.2 0 0.4-0.2 0.8-0.4 1.2-0.5l0.1-0.1c0.1-0.1 0.1-0.3 0.2-0.4v-0.2c-0.1-0.1-0.2-0.1-0.3-0.2l0.2 0.7h-0.1l-0.1 0.1h-0.1-0.2-0.1c-0.1-0.1-0.2-0.3-0.3-0.4l-0.1-0.1-0.1-0.1 0.1-0.1h0.1 0.1c0.1 0.1 0.3 0.2 0.4 0.4h0.1 0.1l0.1-0.1c0 0.1 0.1 0.2 0.2 0.2h0.3 0.1 0.4c0.1 0 0.1 0 0.2 0.1 0 0.1 0.1 0.1 0.2 0.1 0.1 0.1 0.1 0.2 0.2 0.3 0 0.1 0.1 0.1 0.2 0.1 0 0 0.1 0 0.1 0.1 0.2 0.4 0.3 0.8 0.5 1.2 0 0.1 0.1 0.1 0.2 0.1h0.1c0.1 0 0.1-0.1 0.1-0.2v-0.4c0-0.1 0-0.1 0.1-0.2l0.7-0.7 0.1-0.1h0.2 0.1v0.1l0.2 0.2v0.1 0.1 0.1 0.1h0.1c0.3 0.2 0.3 0.2 0.4 0.1zm0.5 1.2zm0.8-1.8zm-0.3 0.8zm-0.1-0.5s0.1 0 0 0c0.1 0 0 0 0 0zm-0.4 0.1zm0.1-0.5c-0.1 0-0.1 0 0 0-0.1 0.1-0.1 0 0 0-0.1 0-0.1 0 0 0zm-7.6-1.2c-0.1 0-0.1 0 0 0-0.1-0.1-0.1-0.1 0 0-0.1 0-0.1 0 0 0zm0-0.5v0 0zm0.3 0.4zm0 0.1zm0.4-1c0.1 0 0.1 0 0 0 0.1 0 0 0 0 0zm0.6 0.2v-0.2 0.2zm0-0.9zm0.3 0.3zm0.2 0.8c0.1 0 0.1-0.1 0 0 0.1-0.1 0.1 0 0 0zm0.1-0.1zm0-0.6s0.1 0 0 0c0.1 0 0 0 0 0zm0.2 0v0 0zm0.6 0.7l-0.2-0.2 0.2 0.2v0zm0.2 0.8c-0.1 0 0 0.1 0 0 0 0.1-0.1 0 0 0zm0.2 0.3c-0.1 0-0.1 0 0 0-0.1 0-0.1 0 0 0zm0.5-2v0 0zm0.3 0.8c0.1 0 0 0 0 0zm0.5 0.6s-0.1 0 0 0c-0.1 0 0 0 0 0zm0.4 0zm0-1.9c0.1 0 0.1-0.1 0.1-0.1l-0.1 0.1zm1.2 2.8zm0-0.1c0.1 0 0.1 0 0 0 0.1 0 0.1 0 0 0zm0.4 0.1v0zm0 0.1v0 0z"/><path class="st3" d="m18.2 25s-0.1 0 0 0c-0.1 0-0.1 0 0 0-0.1 0.1-0.1 0.1-0.1 0.2v0.1 0.1h0.1 0.1v-0.1-0.1-0.1l-0.1-0.1zm0 0.4z"/><path class="st3" d="m9.2 18.9c0.1 0 0.2 0 0.2-0.1l0.1-0.1s0.1 0 0.1-0.1h0.1v0.2 0.1h0.1v0.1s0 0.1 0.1 0.1h0.1s0.1 0 0.1-0.1l0.1-0.1v-0.1-0.1-0.1-0.1l0.1-0.1s0-0.1 0.1-0.1v-0.1l-0.1-0.1v-0.1-0.2-0.1l0.3-0.3v-0.1-0.1-0.1s0-0.1 0.1-0.1h0.1 0.1l-0.3 0.3-0.1 0.1v0.1 0.1 0.1 0.1h0.1 0.1 0.1s0.1 0 0.1-0.1h0.1 0.3v-0.1c0-0.1 0.1-0.2 0.1-0.2 0-0.1 0.1-0.1 0-0.2l-0.3-0.9v-0.2l0.1-0.1 0.1-0.1-0.2-0.2s-0.1-0.1-0.2 0h-0.1c-0.1 0-0.2 0-0.2 0.1l-0.6 0.4-0.3 0.3c-0.2 0.3-0.3 0.6-0.5 0.9 0 0.1-0.1 0.1-0.1 0.2-0.1 0-0.1 0.1-0.2 0.1-0.1 0.1-0.2 0.2-0.2 0.3v0.3c0 0.1 0 0.1 0.1 0.2 0.3 0.4 0.3 0.4 0.4 0.4zm1.8-2.5zm-0.2 0.3c-0.1 0-0.1 0 0 0-0.1-0.1-0.1-0.1 0 0-0.1 0-0.1 0 0 0zm-0.2-0.1zm-0.1 0c0.1 0 0.1 0 0 0 0.1 0 0.1 0 0 0zv0 0 0zm-0.4 0.5v0 0zm-0.3 1.1v0.1-0.1s-0.1 0 0 0c-0.1 0 0 0 0 0z"/><path class="st3" d="m23.8 29.4v0c0.1-0.1 0.1-0.1 0.2-0.1 0.1-0.1 0.2-0.3 0.3-0.4s0.1-0.1 0.1-0.2l0.1-0.2c0.1-0.1 0.1-0.2 0-0.3s-0.1-0.2-0.2-0.4v-0.1c0-0.1 0.1-0.2 0.1-0.3v-0.1h-0.1v-0.1-0.2h-0.1l-0.3 0.6s0 0.1-0.1 0.1h-0.1l-0.2-0.2v-0.1-0.1-0.1h-0.1-0.3c-0.1 0-0.1 0-0.1 0.1l-0.1 0.1v0.1h-0.2c-0.1 0.1-0.2 0.2-0.4 0.3 0 0-0.1 0.1-0.1 0.2 0 0 0 0.1-0.1 0.1l-0.1 0.1c-0.1 0.1-0.2 0.1-0.3 0.1h-0.1c-0.1 0-0.2 0.1-0.3 0.2l-0.1 0.1c-0.1 0.1-0.1 0.2-0.1 0.3-0.1 0.3-0.1 0.7-0.2 1v0.1c-0.1 0.1-0.1 0.1 0 0.2l0.1 0.1c0.1 0 0.1 0 0.2-0.1 0-0.1 0.1-0.1 0.2-0.1h0.2s0.1 0 0.1-0.1v-0.1l0.1-0.1h0.1 0.1 0.1 0.2 0.1s0.1 0.1 0.1 0v0.1 0.1h0.1l0.1-0.1 0.1-0.1s-0.1 0.1-0.1 0.2v0.1 0.1 0.2 0.1l0.1 0.1h0.1 0.1s0.1 0 0.1-0.1l0.1-0.1h0.1s0.1 0 0.1-0.1c0 0 0-0.1 0.1-0.1 0 0 0-0.1 0.1-0.1-0.1-0.4 0.1-0.6 0.2-0.7z"/><path class="st3" d="m21.5 23.7v-0.1h-0.1l-0.1 0.1s-0.1 0.1 0 0.1v0.1h0.1c0-0.1 0-0.1 0.1-0.2z"/><path class="st3" d="m22.5 23.4s0.1 0 0 0h0.1v-0.1l0.1-0.2v-0.1h-0.1s0 0.1-0.1 0.1v0.1 0.2z"/><path class="st3" d="m7.1 17.9c0-0.1-0.1-0.1-0.1-0.1h-0.1c-0.1 0.1-0.2 0.2-0.3 0.2h-0.1-0.1-0.2c-0.1 0-0.1 0.1-0.1 0.2v0.1l0.1 0.1s0.1 0.1 0.2 0.1 0.2 0 0.3-0.1 0.2-0.1 0.3-0.2 0.2-0.2 0.1-0.3c0.1 0.1 0.1 0 0 0z"/><path class="st3" d="m10.8 18.6v0c0.1 0 0.1 0 0 0 0.1 0 0.1 0 0 0 0.1-0.1 0.1-0.1 0 0v0 0z"/><path class="st3" d="m10.4 18.8c0 0.1-0.1 0.1-0.1 0.1 0.1 0 0.2-0.1 0.1-0.1 0.1 0 0.1-0.1 0 0z"/><path class="st3" d="m8.7 20v0 0c0 0.1 0 0.1-0.1 0.1h-0.1-0.1s-0.1 0-0.1 0.1h-0.3s-0.1 0-0.1 0.1c0 0 0 0.1 0.1 0.1h0.2s0.1 0 0.1 0.1c0 0 0 0.1 0.1 0.1v0.2c-0.2 0.2-0.4 0.2-0.6 0.2-0.1 0-0.1 0-0.1 0.1v0.1s0 0.1 0.1 0.1h0.1 0.1c0 0.2 0 0.3 0.1 0.5 0 0 0 0.1 0.1 0.1 0 0 0.1 0 0.1 0.1h0.1 0.1 0.1 0.1s0-0.1 0.1-0.1l0.1-0.1 0.1-0.1 0.1-0.1h0.1v-0.1-0.2h0.1 0.1 0.1 0.1l0.1-0.1h0.1 0.1 0.1l0.2 0.2s0.1 0 0.1 0.1c0.1 0.1 0.2 0.1 0.4 0.2v0.1 0.1 0.1h0.1l0.1-0.1v-0.1h0.1 0.1c-0.1-0.1-0.3-0.1-0.4-0.2l-0.3-0.3h0.1c0.1 0.1 0.2 0.1 0.2 0.2 0 0 0.1 0.1 0.2 0.1h0.1l0.1 0.1v0.1 0.1l0.1 0.1v0.1l0.1 0.1 0.1 0.1h0.1l-0.2-0.2h0.1 0.1 0.2 0.1 0.1 0.1-0.1l-0.1-0.1v-0.1-0.1c0.1 0 0.1-0.1 0.1-0.2v-0.1-0.1h0.1 0.1 0.1 0.2 0.1 0.1 0.1 0.1 0.1c0-0.1 0-0.2 0.1-0.2v-0.1l-0.1-0.1h-0.3c-0.1 0-0.1 0-0.1-0.1l-0.1-0.1-0.1-0.1s-0.1-0.1-0.2 0h-0.1-0.1v-0.1-0.1-0.1l-0.1-1.4-0.1-0.1h-0.1s-0.1 0-0.1-0.1v-0.1-0.4h-0.3c-0.1 0-0.1 0-0.1 0.1v0.1s0 0.1 0.1 0.1h0.1-0.1-0.1-0.1v0.1 0.3 0.1s0 0.1 0.1 0.1h-0.5-0.1l-0.2 0.1-0.1 0.1h-0.1-0.1v-0.1-0.1-0.3l-0.1 0.1v0.1 0.1s0 0 0 0.1 0 0.1 0.1 0.1v0.1s-0.1 0-0.1 0.1h-0.1-0.1l-0.2 0.2v0.1c-0.7 0.1-0.7 0.1-0.8 0.1 0.1 0 0.1 0 0 0zm0 1.6zm3-1.2v0 0 0zm-0.1 0v0 0zm0 0.3c-0.1 0-0.1 0 0 0-0.1 0-0.1 0 0 0zm0 0.3c0 0.1-0.1 0.1 0 0-0.1 0.1-0.1 0.1 0 0-0.1 0.1 0 0.1 0 0zm-0.3 0.1c-0.1 0-0.1 0 0 0-0.1 0 0 0 0 0zm-0.2-0.4zm0-1.4v0.1-0.1zm0 0.3c-0.1 0-0.1 0.1 0 0-0.1 0.1-0.1 0 0 0zm-0.1 1.4h-0.1 0.1zm-0.6-0.9zm0 0.2v0 0zm0 0.2v0c-0.1-0.1-0.1-0.1 0 0-0.1-0.1 0-0.1 0 0zm-0.4 0.1zm-0.4-0.2zm-0.1-1.1s0.1 0 0 0c0.1 0 0 0 0 0zm-0.1 1.1v0 0zm0-0.2v0 0zm0 0.4c-0.1 0.1 0 0 0 0zm-0.3-0.6s0 0.1 0.1 0.1l-0.1-0.1v0-0.1 0.1zm0 0.1z"/><path class="st3" d="m9.7 19.1s-0.1 0.1 0 0c-0.1 0.1 0 0.1 0 0v0.1c0.1 0 0.1 0 0-0.1 0.1 0.1 0.1 0.1 0 0 0.1 0.1 0.1 0.1 0 0 0.1 0.1 0.1 0 0 0z"/><path class="st3" d="m7.9 19.5h0.1 0.1v0.1s-0.1 0-0.1 0.1c0 0-0.1 0-0.1 0.1 0 0 0 0.1 0.1 0.1v0.1l-0.1 0.1h0.2s0.1 0 0.1-0.1h0.3s0.1 0 0.1-0.1l0.1-0.1v-0.1c0-0.1-0.1-0.1-0.1-0.1h-0.1v-0.1-0.1h-0.1s0-0.1-0.1-0.1v-0.1h-0.1 0.1v-0.1-0.1h-0.1v-0.1h-0.1c-0.1 0.1-0.1 0.1-0.2 0.1l-0.1 0.1v0.2c0 0.1 0.1 0.2 0.1 0.2zm0.1 0.7z"/><path class="st3" d="m7.4 20h0.1 0.1 0.1c0.1 0 0.1-0.1 0.1-0.1v-0.1-0.1-0.1h-0.1-0.1-0.1c-0.1 0-0.1 0.1-0.1 0.1s0 0.1 0.1 0.1c0 0 0 0.1-0.1 0.2v0z"/><path class="st3" d="m10.3 21.6h-0.2v0.1c0.1 0 0.1 0.1 0.2 0.1h0.1c0-0.2 0-0.2-0.1-0.2z"/><path class="st3" d="m9.5 21.3v0.1l0.1 0.1h0.1v-0.1-0.1s0-0.1-0.2 0c0.1-0.1 0.1-0.1 0 0 0.1-0.1 0-0.1 0 0z"/><path class="st3" d="m9.7 21.1v-0.1l-0.1 0.1v0.1c0-0.1 0-0.1 0.1-0.1-0.1 0.1 0 0.1 0 0z"/><path class="st3" d="m11.4 21.9s-0.1 0 0 0v0c0.1 0.1 0.2 0.1 0.3 0.1 0 0 0-0.1-0.1-0.1h-0.2z"/><path class="st3" d="m12.4 22c0.1 0 0.2 0 0.2-0.1v-0.1h-0.1-0.1c0 0.1-0.1 0.1 0 0.2-0.1 0 0 0 0 0z"/><path class="st3" d="m15.1 27.6s0-0.1-0.1-0.1c0 0.1-0.1 0.2-0.1 0.3 0 0 0 0.1-0.1 0.1h-0.2s-0.1 0-0.1 0.1v0.1 0.1 0.1 0.1 0.2 0.1 0.1c0 0.1 0 0.1 0.1 0.1h0.1l0.1 0.1 0.1-0.1c0-0.3 0.1-0.6 0.1-1v-0.2l0.1-0.1z"/><path class="st3" d="m20.8 26.4c0-0.1 0-0.1-0.1-0.2-0.2-0.2-0.4-0.5-0.7-0.8l-0.1-0.1h-0.1-0.1v0.1c0.1 0.1 0.2 0.2 0.3 0.4 0 0 0.1 0.1 0.1 0.2v0.1 0.1c0.1 0.1 0.2 0.3 0.3 0.4h0.1c0.1 0 0.1-0.1 0.1-0.1l0.2-0.1z"/><path class="st3" d="m22.1 25.9c0.1 0 0.1-0.1 0 0l0.1-0.1-0.1-0.1v-0.1-0.1h0.1v-0.1l-0.1-0.1h-0.1c-0.2 0.1-0.3 0.3-0.5 0.5 0 0-0.1 0-0.1 0.1h-0.1c0 0.1-0.1 0.1 0 0.2 0 0.1 0 0.1 0.1 0.2 0 0.1 0.1 0.1 0.1 0.1h0.2 0.1 0.1c0-0.2 0.1-0.4 0.2-0.5zm-0.4 0.5z"/><path class="st3" d="m22.5 24.1v0.2l0.1 0.1h0.1 0.1v-0.1-0.1l0.1-0.1v-0.1-0.1h-0.1c-0.1 0-0.2 0.1-0.2 0.2-0.1-0.1-0.1-0.1-0.1 0z"/><path class="st3" d="m22.8 24.6s-0.1 0 0 0h-0.1v0.1s0.1 0 0.1-0.1z"/><path class="st3" d="m22.9 24.5c0.1 0 0.1 0 0 0 0-0.1 0-0.1-0.1-0.1h-0.1v0.1h0.2z"/><path class="st3" d="m22.5 24.4c0 0.1 0 0.1 0.1 0.1h0.1v-0.1c-0.1 0.1-0.1 0-0.2 0 0.1 0 0 0 0 0z"/><path class="st3" d="m23.1 24.5s-0.1 0 0 0c-0.1 0-0.1 0 0 0h-0.1l0.1 0.1v-0.1 0 0 0z"/><path class="st3" d="m22.9 25.3c0.1 0 0.1 0 0 0 0.1 0 0.1 0 0.1-0.1 0 0 0.1 0 0.1-0.1v-0.1-0.1h-0.1l-0.2 0.2v0.1l0.1 0.1v0z"/><path class="st3" d="m22.8 24.8c-0.1 0-0.1 0 0 0-0.1 0-0.1 0 0 0v0.1-0.1 0 0z"/><path class="st3" d="m22.4 24.7v-0.1 0.1 0s-0.1 0 0 0h-0.1c-0.1 0.1-0.2 0.1-0.2 0.2v0.1l0.2-0.2 0.1-0.1v0z"/><path class="st3" d="m24.9 26.3s-0.1-0.1 0 0v0-0.1c-0.1 0-0.3-0.1-0.4-0.1s-0.2-0.1-0.2-0.1-0.1 0-0.1 0.1l-0.2 0.2v-0.1-0.1-0.1h-0.1-0.1s-0.1 0-0.1 0.1v0.1 0.1h0.1 0.1 0.1 0.1c0.1 0 0.1 0 0.1 0.1v0.1h0.1 0.1 0.1s0.1 0 0.1-0.1h0.1c0 0.1 0.1 0.1 0.1 0.2h0.1c0.1 0 0.1-0.1 0.1-0.1v-0.1l-0.1-0.1v-0.1c0.1 0.1 0 0.1 0 0.1z"/><path class="st3" d="m21.5 26.9c0.1 0 0.1 0 0.1-0.1v-0.1c-0.1 0-0.2-0.1-0.3-0.1h-0.1-0.1-0.2-0.1v0.1c0.2 0.1 0.5 0.2 0.7 0.2z"/><path class="st3" d="m22.6 26v0 0h-0.1l-0.1 0.1h-0.1s-0.1 0-0.1 0.1-0.1 0.1-0.1 0.2v0.1 0.1s0.1 0 0.1-0.1v-0.2s0 0 0 0v0.1h0.1v-0.1-0.1-0.1c0.2 0 0.3-0.1 0.3-0.1zm-0.4 0.5z"/><path class="st3" d="m22.5 27.1c0.1-0.1 0.2-0.1 0.3-0.2h-0.1-0.1-0.1s-0.1 0.1 0 0.2c-0.1-0.1-0.1-0.1 0 0-0.1-0.1-0.1-0.1 0 0-0.1-0.1-0.1-0.1 0 0-0.1-0.1-0.1 0 0 0z"/><path class="st3" d="m25.5 26.1c-0.1 0-0.1 0 0 0-0.1 0.1-0.1 0.1-0.2 0.1h-0.2s-0.1 0-0.1 0.1h0.1 0.1c0.2-0.1 0.3-0.1 0.3-0.2 0.1 0.1 0.1 0 0.1 0h-0.1v0z"/><path class="st3" d="m10.5 14c0 0.1 0.1 0.1 0 0 0.1 0.1 0.1 0.1 0 0h0.2s0.1 0 0.1-0.1l0.2-0.2v-0.1-0.1h-0.1c-0.1 0-0.3 0.1-0.4 0.1 0 0-0.1 0-0.1 0.1v0.1l0.1 0.2z"/><path class="st3" d="m9.9 14.5v0 0c0.1 0.1 0.1 0.1 0 0l0.1 0.2v0.1l0.2 0.2 0.1-0.1c0-0.2 0.1-0.3 0.1-0.5 0 0 0-0.1 0.1-0.1 0 0 0.1 0 0.1-0.1l-0.3-0.3s-0.1 0-0.1 0.1h-0.2c-0.1 0-0.2 0.1-0.2 0.2v0.1c-0.1 0.1 0 0.1 0.1 0.2-0.1 0-0.1 0 0 0z"/><path class="st3" d="m10.7 14.3s-0.1 0 0 0c-0.1 0-0.1 0.1 0 0l-0.1 0.1h0.1s0.1 0 0-0.1v0z"/><path class="st3" d="m22.6 30.7v0 0c-0.1-0.1-0.1-0.1-0.1 0-0.1 0.1-0.1 0.3-0.2 0.4v0.1c0.2-0.2 0.3-0.3 0.3-0.5 0.1 0.1 0.1 0.1 0.1 0v-0.1l-0.1 0.1z"/><path class="st3" d="m25.2 29.1s-0.1 0 0 0c-0.1 0.1-0.1 0.2-0.1 0.2s0 0.1-0.1 0.1v0.1l-0.1 0.1-0.1 0.1-0.1 0.1s0 0.1-0.1 0.1c0 0 0 0.1-0.1 0.1h-0.1c-0.3 0.3-0.6 0.6-0.9 0.8l-0.1 0.1s0.1 0 0.1-0.1c0.5-0.5 1-1 1.6-1.5 0.1-0.1 0.1-0.1 0.1-0.2v0c0.1 0 0.1 0 0 0z"/><path class="st3" d="m25.9 27.5c-0.1 0-0.1 0-0.1 0.1l0.1 0.1s0.1 0 0.1-0.1c-0.1 0-0.1 0-0.1-0.1z"/><path class="st3" d="m27.3 26.9c-0.1 0-0.1 0.1-0.1 0.1s0.1 0 0.1-0.1v0 0c0.1 0 0.1 0 0 0z"/><path class="st3" d="m25.8 26.2s-0.1 0 0 0h-0.1c0 0.1 0.1 0.1 0.1 0v0z"/><path class="st3" d="m26.4 26.9v0 0 0c0.1 0 0.1 0 0 0 0.1 0 0.1 0 0 0z"/><path class="st3" d="m26 26.4v0c0 0.1 0.1 0.1 0 0 0.1 0.1 0.1 0.1 0 0 0.1 0.1 0.1 0.1 0 0 0.1 0.1 0.1 0 0 0 0.1 0 0.1 0 0 0z"/><path class="st3" d="m26.1 26.3s-0.1 0 0 0c-0.1 0-0.1 0 0 0-0.1 0.1-0.1 0.1 0 0-0.1 0.1 0 0.1 0 0v0z"/><path class="st3" d="m23.1 26.3h0.2s0.1 0 0.1-0.1h-0.2c-0.1 0-0.2 0-0.1 0.1-0.1-0.1-0.1-0.1 0 0z"/><path class="st3" d="m22 26.8h-0.2s-0.1 0-0.1 0.1h0.2c0.1 0 0.2 0 0.1-0.1 0.1 0 0.1 0 0 0z"/><path class="st3" d="m22.1 26.9h0.2s0.1 0 0.1-0.1h-0.2c-0.1 0-0.1 0-0.1 0.1z"/><path class="st3" d="m22.8 25.7h-0.4s-0.1 0-0.1 0.1c0.2 0 0.4 0 0.5-0.1v0 0zm-0.4 0.1z"/></g><path class="st3" d="m14.4 13.8c0-0.1 0-0.1-0.1-0.1 0 0-0.1 0-0.1 0.1l-0.1 0.1h-0.1s-0.1 0-0.1 0.1l-0.2 0.2c-0.1 0.1-0.1 0.1-0.1 0.2-0.1 0.3-0.1 0.6-0.2 0.8 0 0.1 0 0.1 0.1 0.2s0.2 0.1 0.3 0.2h0.1 0.1v-0.1l-0.2-0.2s-0.1-0.1-0.1-0.2c0-0.2 0.1-0.4 0.1-0.6 0 0 0-0.1 0.1-0.1l0.6-0.6c-0.1 0.1-0.1 0.1-0.1 0z"/><path class="st3" d="m23.9 18.7c0.1 0.4 0.3 0.8 0.4 1.1l0.1 0.1s0.1 0 0-0.1c0-0.1-0.1-0.2-0.1-0.3-0.1-0.2-0.2-0.5-0.4-0.7 0.2-0.2 0.1-0.2 0-0.1v0z"/><path class="st3" d="m19.9 12.5v0.1c0 0.1 0.1 0.2 0.1 0.2 0.1 0 0.1 0.1 0.2 0.1h0.2l0.2-0.2v-0.1c0-0.1-0.1-0.1-0.1-0.2-0.2 0-0.3-0.1-0.5-0.1 0 0-0.1 0.1-0.1 0.2z"/><path class="st3" d="m16.7 12.6l0.2-0.2c0.1-0.1 0.1-0.1 0-0.2s-0.2-0.1-0.3-0.2h-0.1c0.1 0.2 0.1 0.4 0.2 0.6-0.1 0 0 0 0 0z"/><path class="st3" d="m16.4 12.3v-0.3s0-0.1-0.1-0.1c0 0-0.1 0-0.1-0.1-0.1 0-0.1 0-0.2 0.1 0 0 0 0.1-0.1 0.1-0.1 0.1 0 0.2 0.1 0.2 0.1 0.1 0.2 0.1 0.4 0.1v0z"/><path class="st3" d="m26.5 15.6l-0.1-0.1-0.1-0.1v-0.2c0-0.1-0.1-0.1-0.1-0.2h-0.1-0.1-0.1-0.1l-0.1-0.1c-0.2-0.1-0.3-0.1-0.5-0.2 0 0-0.1 0-0.1-0.1-0.1-0.1-0.2-0.1-0.3-0.2l-0.1-0.1c-0.1 0-0.2-0.1-0.4-0.1-0.1 0-0.1 0.1-0.1 0.1 0.1 0.1 0.1 0.2 0.2 0.2v0.1h-0.1l-0.2-0.2c-0.1-0.1-0.1-0.1-0.2-0.1h-0.6c-0.1 0-0.1-0.1-0.1-0.1v-0.1l-0.1-0.1c0-0.1-0.1-0.1-0.2-0.1h-0.2c-0.1 0-0.1 0-0.2 0.1h-0.2c-0.1-0.1-0.2-0.2-0.4-0.3l-0.1-0.1c-0.3-0.1-0.5-0.1-0.8-0.2-0.1 0-0.1 0.1-0.1 0.1 0 0.1 0.1 0.2 0.1 0.3v0.2c-0.1 0.1-0.3 0.1-0.4 0.2-0.1 0-0.2 0-0.3-0.1-0.2-0.2-0.4-0.4-0.5-0.6l-0.1-0.1h-0.2c-0.1 0-0.1 0.1-0.1 0.1v0.1 0.1c-0.3 0-0.5-0.1-0.8-0.1-0.1 0-0.2 0-0.2 0.1-0.1 0.1-0.2 0.1-0.3 0.2 0 0-0.1 0-0.1-0.1 0.1-0.2 0.1-0.4 0.2-0.6 0-0.1 0-0.2-0.1-0.2l-0.3-0.3s-0.1-0.1-0.2 0h-0.2c-0.1 0-0.1-0.1-0.2-0.1h-0.1c-0.2 0-0.3 0.2-0.2 0.3v0.1c0 0.1 0 0.2-0.1 0.2l-0.9 0.6c-0.1 0.1-0.1 0.2 0 0.2 0 0 0.1 0 0.1 0.1v0.1c-0.1 0-0.2 0.1-0.3 0.2 0 0-0.1 0-0.1 0.1-0.1 0.1-0.2 0.1-0.3 0.2s-0.1 0.2-0.1 0.3c0.1 0.2 0.1 0.5 0.2 0.7h0.1 0.2c0.1 0.1 0.2 0.2 0.2 0.3v0.1h-0.1c-0.1-0.1-0.1-0.2-0.2-0.2h-0.1v0.1c0 0.1 0 0.1 0.1 0.2 0 0.1 0 0.2-0.1 0.2l-0.1 0.1h-0.1v-0.1l0.1-0.1s0.1-0.1 0-0.1c-0.1-0.4-0.2-0.8-0.3-1.1 0-0.1-0.1-0.1-0.2-0.1h-0.1c-0.1 0-0.1 0-0.1 0.1v0.8c0 0.1-0.1 0.2-0.2 0.2h-0.2c-0.1 0-0.3 0-0.4-0.1h-0.1v0.1h0.1v0.1c-0.3 0.2-0.6 0.4-0.9 0.7-0.1 0-0.1 0.1-0.2 0.1s-0.2 0.1-0.3 0.1-0.1 0.1-0.2 0.1l-0.4 0.4c-0.1 0.1-0.1 0.1-0.2 0h-0.1l-0.1-0.1v-0.1h0.1 0.3c0.1 0 0.1 0 0.2-0.1s0.1-0.2 0-0.3l-0.6-0.3h-0.2l-0.1 0.1c-0.1 0.1-0.1 0.2-0.1 0.3l0.3 0.9v0.2c0 0.1-0.1 0.2-0.1 0.2v0.1 0.1l-0.1 0.1v0.4c0 0.1 0.1 0.2 0.2 0.2h0.1c0.1 0 0.1 0 0.1 0.1l0.2 0.2v0.1s-0.1 0.1 0 0.1c0 0 0.1 0.1 0.1 0h0.1 0.1c0 0.1 0.1 0.1 0.1 0.2l0.1 0.1h0.3c0.1 0 0.1 0.1 0.1 0.1 0 0.1-0.1 0.3-0.1 0.4v0.1h-0.2-0.1-0.1-0.1v0.1s0.1 0 0.1 0.1h0.1 0.3 0.1c0.1 0.1 0.2 0.2 0.4 0.3 0.1 0.1 0.2 0.1 0.2 0.1h0.4c0.1 0 0.2-0.1 0.1-0.2 0-0.1-0.1-0.1-0.1-0.2v-0.1c0-0.1 0.1-0.1 0.1-0.2s0-0.2-0.1-0.2-0.1-0.1-0.2-0.1v-0.1c0.1-0.1 0.2-0.3 0.3-0.4 0 0 0.1-0.1 0.1 0 0.1 0 0.2 0 0.3 0.1h0.1 0.3c0.1 0 0.2-0.1 0.2-0.2v-0.3s0-0.1 0.1-0.1l0.6-0.3h0.2l0.1 0.1s0.1 0 0.1 0.1c0.1 0 0.2 0 0.3 0.1h0.1 0.1 0.2c0.4 0.2 0.8 0.4 1.2 0.7h0.2c0.1 0 0.1-0.1 0.2-0.1h0.1 0.1 0.1s0.1 0 0.1 0.1h0.1 0.1c0.1 0 0.1-0.1 0.1-0.1v-0.1c0-0.1 0.1-0.2 0.1-0.1 0.1 0 0.1 0 0.2 0.1 0 0 0.1 0 0.1 0.1s0.1 0.1 0.2 0.1h0.3 0.2s0.1 0 0.1 0.1c0.1 0.1 0.2 0.1 0.3 0 0.1 0 0.3-0.1 0.4-0.1h0.1 0.3 0.1c0.1 0 0.1-0.1 0.1-0.1v-0.3-0.1-0.1s0-0.1 0.1-0.1h0.4c0.1 0 0.1 0 0.2 0.1s0.2 0.3 0.3 0.4c0 0.1 0.1 0.1 0.2 0.1s0.2 0.1 0.3 0.1l0.1 0.1c0 0.1 0 0.1 0.1 0.1h0.1 0.1v-0.1h0.1c0.1 0 0.1 0.1 0.1 0.1v0.4c0 0.1-0.1 0.1-0.1 0.1h-0.1-0.1l-0.1 0.1c0 0.1 0 0.1 0.1 0.2 0 0.1 0.1 0.1 0.1 0.1h0.1s0.1 0 0.1-0.1l0.3-0.6v-0.1c0-0.3-0.1-0.6-0.2-0.9 0-0.1 0-0.1-0.1-0.1s-0.1-0.1-0.2-0.1h-0.2-0.1c-0.1 0-0.1-0.1-0.2-0.1s-0.1-0.1-0.1-0.2c0.1-0.3 0.2-0.5 0.2-0.7 0-0.1 0.1-0.1 0.2-0.1h0.4s0.1 0 0.1-0.1c0 0 0.1-0.1 0.1 0 0.1 0 0.2 0 0.2 0.1 0.1 0 0.2 0 0.2-0.1v-0.3c0-0.1 0-0.1 0.1-0.1h0.1s0.1 0 0.1 0.1c0 0 0 0.1 0.1 0.1h0.1v-0.3s0-0.1 0.1-0.1 0.1 0.1 0.1 0.1v0.3 0.1 0.1 0.4s0 0.1-0.1 0.1-0.1 0.1 0 0.2c0.2 0.4 0.3 0.8 0.5 1.1 0 0 0 0.1 0.1 0.1s0.1 0 0.1-0.1v-1c0-0.1 0-0.1-0.1-0.2 0 0 0-0.1-0.1-0.1-0.1-0.1-0.1-0.1-0.1-0.2v-0.2c0-0.1 0-0.1 0.1-0.1 0 0 0.1 0 0.1-0.1h0.2 0.1c0.1 0 0.2 0 0.2-0.1 0.1-0.1 0.1-0.2 0.2-0.4h0.1c0.1 0 0.1 0 0.1-0.1v-0.1c-0.1-0.1-0.2-0.2-0.3-0.4h-0.1l-0.1-0.1v-0.3s0-0.1-0.1-0.1v-0.1h0.1v0.1h0.1 0.1 0.1l0.1 0.1 0.1 0.1h0.1 0.1c0.2-0.8 0.1-0.8 0.1-0.9z"/><path class="st3" d="m20.8 12.5c0.1 0 0.2 0 0.3 0.1l0.1 0.1s0 0.1-0.1 0.1h-0.2s-0.1 0-0.1-0.1v-0.2z"/><path class="st3" d="m20.8 13.4h0.2s0.1 0 0-0.1l-0.2-0.2h-0.1s-0.1 0-0.1 0.1c0.1 0 0.1 0 0.2 0.2-0.1-0.1-0.1 0 0 0z"/><path class="st3" d="m13.4 12.7l0.2-0.2v-0.1h-0.1c-0.1 0.1-0.2 0.2-0.2 0.3v0.1s0.1 0 0.1-0.1z"/><path class="st3" d="m13.2 12.9c0 0.1-0.1 0.1-0.1 0.1v-0.1c0-0.1 0.1-0.1 0.1 0-0.1-0.1 0-0.1 0-0.1 0.1 0 0.1 0.1 0 0.1z"/><path class="st3" d="m13.1 12.7s0-0.1 0.1-0.1v-0.1-0.1 0.1 0.1 0.1 0.1l-0.1-0.1z"/><path class="st3" d="m12.5 13.1c0.1 0 0.1 0 0.1-0.1l0.1-0.1v-0.1h-0.1c0 0.1-0.1 0.2-0.1 0.3z"/><path class="st3" d="m25.6 19.3v-0.1c0.1 0.1 0.1 0.1 0 0.1 0.1 0 0.1 0 0 0z"/><path class="st3" d="m25.6 19.7s-0.1 0 0 0c-0.1 0-0.1 0 0 0-0.1 0 0 0 0 0z"/><path class="st3" d="m25.3 20.1v0c0-0.1 0.1-0.1 0.1-0.1h0.1c-0.1 0-0.1 0.1-0.2 0.1z"/><path class="st3" d="m25 20.2c0-0.1 0.1-0.1 0.1-0.2h0.1c0 0.2-0.1 0.2-0.2 0.2 0.1 0 0.1 0 0 0z"/><path class="st3" d="m15.9 12s0-0.1 0.1-0.1v-0.2l-0.1-0.1h-0.1v0.1 0.1 0.1s0.1 0 0.1 0.1c-0.1 0-0.1 0 0 0z"/></g></g><path class="st5" d="m8.1 10.1c-5.4 5.4-5.4 14.3 0 19.7 4.1 4.1 10.1 5.1 15.1 3.1 0.8-0.3 1.7-0.8 2.4-1.3 0.8-0.5 1.5-1.1 2.2-1.8 5.4-5.4 5.4-14.3 0-19.7-5.5-5.4-14.3-5.4-19.7 0z"/><linearGradient id="SVGID_4_" y2="834.67" gradientUnits="userSpaceOnUse" x2="833.46" gradientTransform="translate(-802.88 -828.55)" y1="834.67" x1="808.12"><stop stop-color="#012921" offset="0"/><stop stop-color="#013128" offset=".03"/><stop stop-color="#035343" offset=".16"/><stop stop-color="#056C56" offset=".28"/><stop stop-color="#067B62" offset=".39"/><stop stop-color="#068066" offset=".49"/><stop stop-color="#067C62" offset=".59"/><stop stop-color="#056E58" offset=".7"/><stop stop-color="#045847" offset=".82"/><stop stop-color="#023A2E" offset=".94"/><stop stop-color="#012921" offset="1"/></linearGradient><path class="st6" d="m8.1 10.1c5.4-5.4 14.3-5.4 19.7 0-0.8-0.8-0.8-2 0-2.8s2-0.8 2.8 0c-7-7-18.4-7-25.3 0 0.8-0.8 2-0.8 2.8 0 0.7 0.8 0.7 2.1 0 2.8"/><linearGradient id="SVGID_5_" y2="862.43" gradientUnits="userSpaceOnUse" x2="833.46" gradientTransform="translate(-802.88 -828.55)" y1="862.43" x1="808.12"><stop stop-color="#012921" offset="0"/><stop stop-color="#013128" offset=".03"/><stop stop-color="#035343" offset=".16"/><stop stop-color="#056C56" offset=".28"/><stop stop-color="#067B62" offset=".39"/><stop stop-color="#068066" offset=".49"/><stop stop-color="#067C62" offset=".59"/><stop stop-color="#056E58" offset=".7"/><stop stop-color="#045847" offset=".82"/><stop stop-color="#023A2E" offset=".94"/><stop stop-color="#012921" offset="1"/></linearGradient><path class="st7" d="m27.8 32.7c-0.8-0.8-0.8-2 0-2.8-5.4 5.4-14.3 5.4-19.7 0 0.8 0.8 0.8 2 0 2.8s-2 0.8-2.8 0c7 7 18.4 7 25.3 0-0.8 0.7-2.1 0.7-2.8 0z"/><linearGradient id="SVGID_6_" y2="840.83" gradientUnits="userSpaceOnUse" x2="820.79" gradientTransform="translate(-802.88 -828.55)" y1="832.55" x1="820.79"><stop stop-color="#012921" offset="0"/><stop stop-color="#044D3D" stop-opacity="0" offset="1"/></linearGradient><path class="st8" d="m8.6 8.8c0 0.5-0.2 1-0.6 1.4 5.4-5.4 14.3-5.4 19.7 0-0.4-0.4-0.6-0.9-0.6-1.4-5.2-4.8-13.2-4.8-18.5 0z"/><linearGradient id="SVGID_7_" y2="1234.4" gradientUnits="userSpaceOnUse" x2="-562.68" gradientTransform="matrix(-1 0 0 -1 -544.78 1262.1)" y1="1226.1" x1="-562.68"><stop stop-color="#012921" offset="0"/><stop stop-color="#044D3D" stop-opacity="0" offset="1"/></linearGradient><path class="st9" d="m27.2 31.2c0-0.5 0.2-1 0.6-1.4-5.4 5.4-14.3 5.4-19.7 0 0.4 0.4 0.6 0.9 0.6 1.4 5.2 4.8 13.2 4.8 18.5 0z"/><linearGradient id="SVGID_8_" y2="865.32" gradientUnits="userSpaceOnUse" x2="807.2" gradientTransform="translate(-802.88 -828.55)" y1="838.76" x1="807.2"><stop stop-color="#44B873" offset=".12"/><stop stop-color="#008453" offset="1"/></linearGradient><path class="st10" d="m6.3 27.7c-0.5-0.8-0.9-1.6-1.3-2.4-2-5-1-11 3.1-15.1 0.8-0.8 0.8-2 0-2.8s-2-0.8-2.8 0c-6.1 6.1-6.9 15.6-2.3 22.5 0.7 1 1.4 1.9 2.3 2.8 0.8 0.8 2 0.8 2.8 0s0.8-2 0-2.8c-0.7-0.7-1.3-1.5-1.8-2.2z"/><linearGradient id="SVGID_9_" y2="865.32" gradientUnits="userSpaceOnUse" x2="834.38" gradientTransform="translate(-802.88 -828.55)" y1="838.76" x1="834.38"><stop stop-color="#44B873" offset=".12"/><stop stop-color="#008453" offset="1"/></linearGradient><path class="st11" d="m30.6 7.3c-0.8-0.8-2-0.8-2.8 0s-0.8 2 0 2.8c5.4 5.4 5.4 14.3 0 19.7-0.8 0.8-0.8 2 0 2.8s2 0.8 2.8 0c7-6.9 7-18.3 0-25.3z"/><linearGradient id="SVGID_10_" y2="848.55" gradientUnits="userSpaceOnUse" x2="827.88" gradientTransform="translate(-802.88 -828.55)" y1="848.55" x1="839.14"><stop stop-color="#FFF" offset="0"/><stop stop-color="#F9FDFB" stop-opacity=".883" offset=".099"/><stop stop-color="#E9F7EF" stop-opacity=".733" offset=".226"/><stop stop-color="#CFEDDB" stop-opacity=".565" offset=".369"/><stop stop-color="#AADFBF" stop-opacity=".383" offset=".523"/><stop stop-color="#7BCD9C" stop-opacity=".191" offset=".686"/><stop stop-color="#44B873" stop-opacity="0" offset=".848"/></linearGradient><path class="st12" d="m28.6 32.7c-0.8-0.8-0.8-2 0-2.8 5.4-5.4 5.4-14.3 0-19.7-0.8-0.8-0.8-2 0-2.8 0.3-0.3 0.6-0.5 1-0.5-0.6-0.1-1.3 0-1.8 0.5-0.8 0.8-0.8 2 0 2.8 5.4 5.4 5.4 14.3 0 19.7-0.8 0.8-0.8 2 0 2.8 0.5 0.5 1.2 0.7 1.8 0.5-0.4-0.1-0.7-0.3-1-0.5z"/><linearGradient id="SVGID_11_" y2="848.55" gradientUnits="userSpaceOnUse" x2="-581.57" gradientTransform="matrix(-1 0 0 1 -570.74 -828.55)" y1="848.55" x1="-570.31"><stop stop-color="#FFF" offset="0"/><stop stop-color="#F9FDFB" stop-opacity=".883" offset=".099"/><stop stop-color="#E9F7EF" stop-opacity=".733" offset=".226"/><stop stop-color="#CFEDDB" stop-opacity=".565" offset=".369"/><stop stop-color="#AADFBF" stop-opacity=".383" offset=".523"/><stop stop-color="#7BCD9C" stop-opacity=".191" offset=".686"/><stop stop-color="#44B873" stop-opacity="0" offset=".848"/></linearGradient><path class="st13" d="m7.2 32.7c0.8-0.8 0.8-2 0-2.8-5.4-5.4-5.4-14.3 0-19.7 0.8-0.8 0.8-2 0-2.8-0.3-0.3-0.6-0.5-1-0.5 0.6-0.1 1.3 0 1.8 0.5 0.8 0.8 0.8 2 0 2.8-5.4 5.4-5.4 14.3 0 19.7 0.8 0.8 0.8 2 0 2.8-0.5 0.5-1.2 0.7-1.8 0.5 0.4-0.1 0.7-0.3 1-0.5z"/><linearGradient id="SVGID_12_" y2="846.18" gradientUnits="userSpaceOnUse" x2="820.79" gradientTransform="translate(-802.88 -828.55)" y1="837.02" x1="820.79"><stop stop-color="#FFF" offset="0"/><stop stop-color="#F9FCFB" stop-opacity=".821" offset=".152"/><stop stop-color="#E9F3EF" stop-opacity=".591" offset=".347"/><stop stop-color="#CFE4DB" stop-opacity=".333" offset=".566"/><stop stop-color="#AAD0C0" stop-opacity=".056" offset=".801"/><stop stop-color="#A2CBBA" stop-opacity="0" offset=".848"/></linearGradient><path class="st14" d="m24.4 14.4c0 2-2.9 0.5-6.5 0.5s-6.5 1.4-6.5-0.5 2.9-3.7 6.5-3.7 6.5 1.7 6.5 3.7z"/></svg>
